G04 #@! TF.GenerationSoftware,KiCad,Pcbnew,(2018-02-15 revision 29b28de31)-makepkg*
G04 #@! TF.CreationDate,2019-02-03T15:17:44+10:30*
G04 #@! TF.ProjectId,CS5464_Breakout,4353353436345F427265616B6F75742E,rev?*
G04 #@! TF.SameCoordinates,Original*
G04 #@! TF.FileFunction,Copper,L1,Top,Signal*
G04 #@! TF.FilePolarity,Positive*
%FSLAX46Y46*%
G04 Gerber Fmt 4.6, Leading zero omitted, Abs format (unit mm)*
G04 Created by KiCad (PCBNEW (2018-02-15 revision 29b28de31)-makepkg) date 02/03/19 15:17:44*
%MOMM*%
%LPD*%
G01*
G04 APERTURE LIST*
%ADD10R,2.000000X4.500000*%
%ADD11R,1.000000X0.820000*%
%ADD12R,0.820000X1.000000*%
%ADD13R,1.700000X1.700000*%
%ADD14O,1.700000X1.700000*%
%ADD15R,0.450000X1.750000*%
%ADD16R,1.000000X0.670000*%
%ADD17R,0.670000X1.000000*%
%ADD18C,0.800000*%
%ADD19C,0.250000*%
%ADD20C,0.254000*%
G04 APERTURE END LIST*
D10*
X120650000Y-89095000D03*
X120650000Y-97595000D03*
D11*
X133350000Y-102070000D03*
X133350000Y-103670000D03*
X128905000Y-85255000D03*
X128905000Y-83655000D03*
X131445000Y-85255000D03*
X131445000Y-83655000D03*
D12*
X139535000Y-94615000D03*
X141135000Y-94615000D03*
X139535000Y-92075000D03*
X141135000Y-92075000D03*
X129070000Y-99695000D03*
X127470000Y-99695000D03*
X134950000Y-99695000D03*
X133350000Y-99695000D03*
X134150000Y-86995000D03*
X132550000Y-86995000D03*
D11*
X130810000Y-102070000D03*
X130810000Y-103670000D03*
D13*
X116840000Y-106680000D03*
D14*
X119380000Y-106680000D03*
X121920000Y-106680000D03*
X124460000Y-106680000D03*
X127000000Y-106680000D03*
X129540000Y-106680000D03*
X132080000Y-106680000D03*
X134620000Y-106680000D03*
X137160000Y-106680000D03*
X139700000Y-106680000D03*
D15*
X126585000Y-96945000D03*
X127235000Y-96945000D03*
X127885000Y-96945000D03*
X128535000Y-96945000D03*
X129185000Y-96945000D03*
X129835000Y-96945000D03*
X130485000Y-96945000D03*
X131135000Y-96945000D03*
X131785000Y-96945000D03*
X132435000Y-96945000D03*
X133085000Y-96945000D03*
X133735000Y-96945000D03*
X134385000Y-96945000D03*
X135035000Y-96945000D03*
X135035000Y-89745000D03*
X134385000Y-89745000D03*
X133735000Y-89745000D03*
X133085000Y-89745000D03*
X132435000Y-89745000D03*
X131785000Y-89745000D03*
X131135000Y-89745000D03*
X130485000Y-89745000D03*
X129835000Y-89745000D03*
X129185000Y-89745000D03*
X128535000Y-89745000D03*
X127885000Y-89745000D03*
X127235000Y-89745000D03*
X126585000Y-89745000D03*
D16*
X142875000Y-96760000D03*
X142875000Y-95010000D03*
X142875000Y-89930000D03*
X142875000Y-91680000D03*
D17*
X126760000Y-81915000D03*
X128510000Y-81915000D03*
X133590000Y-81915000D03*
X131840000Y-81915000D03*
D16*
X128270000Y-103745000D03*
X128270000Y-101995000D03*
X135890000Y-101995000D03*
X135890000Y-103745000D03*
X126365000Y-83580000D03*
X126365000Y-85330000D03*
X133985000Y-85330000D03*
X133985000Y-83580000D03*
D17*
X141210000Y-97155000D03*
X139460000Y-97155000D03*
X139460000Y-89535000D03*
X141210000Y-89535000D03*
D18*
X138566900Y-91216200D03*
X143979400Y-89431800D03*
X143996900Y-96760000D03*
X137312300Y-94185000D03*
X136569600Y-85186200D03*
X127767900Y-84240300D03*
X132614800Y-101007400D03*
X128822300Y-101024000D03*
X112000000Y-88000000D03*
X112000000Y-85000000D03*
X112000000Y-100000000D03*
X112000000Y-103000000D03*
X141000000Y-81000000D03*
X137000000Y-81000000D03*
X123000000Y-81000000D03*
X119000000Y-81000000D03*
X115000000Y-81000000D03*
X145000000Y-103000000D03*
X145000000Y-100000000D03*
X145000000Y-88000000D03*
X145000000Y-85000000D03*
X129359700Y-91267500D03*
X128735500Y-88244500D03*
X118455900Y-93258000D03*
X122651700Y-88700800D03*
X131376800Y-87529000D03*
X127700900Y-85520900D03*
X129416800Y-95445100D03*
X129835000Y-100728500D03*
X130485000Y-98450300D03*
X127087000Y-91241700D03*
X125179000Y-92457100D03*
X117645900Y-89277000D03*
X122275800Y-95150700D03*
X130705100Y-95452600D03*
D19*
X139460000Y-89535000D02*
X139129900Y-89535000D01*
X139535000Y-92075000D02*
X139535000Y-91249700D01*
X139129900Y-91128600D02*
X139129900Y-89535000D01*
X139251000Y-91249700D02*
X139129900Y-91128600D01*
X139535000Y-91249700D02*
X139251000Y-91249700D01*
X138654500Y-91128600D02*
X138566900Y-91216200D01*
X139129900Y-91128600D02*
X138654500Y-91128600D01*
X137095700Y-89745000D02*
X135035000Y-89745000D01*
X138566900Y-91216200D02*
X137095700Y-89745000D01*
X143700300Y-89710900D02*
X143979400Y-89431800D01*
X143700300Y-89930000D02*
X143700300Y-89710900D01*
X142875000Y-89930000D02*
X143700300Y-89930000D01*
X141870300Y-89750600D02*
X142049700Y-89930000D01*
X141870300Y-89535000D02*
X141870300Y-89750600D01*
X142875000Y-89930000D02*
X142049700Y-89930000D01*
X141210000Y-89535000D02*
X141870300Y-89535000D01*
X142875000Y-96760000D02*
X143996900Y-96760000D01*
X141870300Y-96939400D02*
X142049700Y-96760000D01*
X141870300Y-97155000D02*
X141870300Y-96939400D01*
X142875000Y-96760000D02*
X142049700Y-96760000D01*
X141210000Y-97155000D02*
X141870300Y-97155000D01*
X134385000Y-89745000D02*
X134385000Y-90945300D01*
X139460000Y-95515300D02*
X139535000Y-95440300D01*
X139460000Y-97155000D02*
X139460000Y-95515300D01*
X139535000Y-94615000D02*
X139535000Y-95440300D01*
X137312300Y-93872600D02*
X137312300Y-94185000D01*
X134385000Y-90945300D02*
X137312300Y-93872600D01*
X139535000Y-94615000D02*
X138799700Y-94615000D01*
X138369700Y-94185000D02*
X138799700Y-94615000D01*
X137312300Y-94185000D02*
X138369700Y-94185000D01*
X134963400Y-83580000D02*
X136569600Y-85186200D01*
X133985000Y-83580000D02*
X134963400Y-83580000D01*
X133769400Y-82919700D02*
X133985000Y-82919700D01*
X133590000Y-82740300D02*
X133769400Y-82919700D01*
X133590000Y-81915000D02*
X133590000Y-82740300D01*
X133985000Y-83580000D02*
X133985000Y-82919700D01*
X126544400Y-82740300D02*
X126760000Y-82740300D01*
X126365000Y-82919700D02*
X126544400Y-82740300D01*
X126760000Y-81915000D02*
X126760000Y-82740300D01*
X126365000Y-83249800D02*
X126365000Y-82919700D01*
X126365000Y-83249800D02*
X126365000Y-83580000D01*
X126365000Y-83580000D02*
X126365000Y-84240300D01*
X126365000Y-84240300D02*
X127767900Y-84240300D01*
X134250300Y-101995000D02*
X134175300Y-102070000D01*
X135890000Y-101995000D02*
X134250300Y-101995000D01*
X133350000Y-102070000D02*
X134175300Y-102070000D01*
X133350000Y-102070000D02*
X133350000Y-101334700D01*
X133022800Y-101007400D02*
X132614800Y-101007400D01*
X133022800Y-101007500D02*
X133022800Y-101007400D01*
X133350000Y-101334700D02*
X133022800Y-101007500D01*
X132435000Y-100827600D02*
X132435000Y-96945000D01*
X132614800Y-101007400D02*
X132435000Y-100827600D01*
X123095300Y-106312600D02*
X123095300Y-106680000D01*
X123903200Y-105504700D02*
X123095300Y-106312600D01*
X127816900Y-105504700D02*
X123903200Y-105504700D01*
X129984600Y-103337000D02*
X127816900Y-105504700D01*
X129984600Y-103090300D02*
X129984600Y-103337000D01*
X130140300Y-102934600D02*
X129984600Y-103090300D01*
X135739900Y-102934600D02*
X130140300Y-102934600D01*
X135890000Y-103084700D02*
X135739900Y-102934600D01*
X135890000Y-103745000D02*
X135890000Y-103084700D01*
X121920000Y-106680000D02*
X123095300Y-106680000D01*
X120555300Y-106312700D02*
X120555300Y-106680000D01*
X123123000Y-103745000D02*
X120555300Y-106312700D01*
X128270000Y-103745000D02*
X123123000Y-103745000D01*
X119380000Y-106680000D02*
X120555300Y-106680000D01*
X128725200Y-101995000D02*
X128822300Y-101897900D01*
X128270000Y-101995000D02*
X128725200Y-101995000D01*
X128822300Y-101897900D02*
X128822300Y-101024000D01*
X129812600Y-101897900D02*
X129984700Y-102070000D01*
X128822300Y-101897900D02*
X129812600Y-101897900D01*
X130810000Y-102070000D02*
X129984700Y-102070000D01*
X131785000Y-100359700D02*
X130810000Y-101334700D01*
X131785000Y-96945000D02*
X131785000Y-100359700D01*
X130810000Y-102070000D02*
X130810000Y-101334700D01*
X129070000Y-99695000D02*
X129070000Y-98869700D01*
X128535000Y-98334700D02*
X128535000Y-96945000D01*
X129070000Y-98869700D02*
X128535000Y-98334700D01*
X128535000Y-96945000D02*
X128535000Y-95744700D01*
X131445000Y-83655000D02*
X131032400Y-83655000D01*
X134150000Y-86995000D02*
X134150000Y-86169700D01*
X133735000Y-88235300D02*
X134150000Y-87820300D01*
X133735000Y-89745000D02*
X133735000Y-88235300D01*
X134150000Y-86995000D02*
X134150000Y-87820300D01*
X142049700Y-91895600D02*
X141870300Y-92075000D01*
X142049700Y-91680000D02*
X142049700Y-91895600D01*
X142875000Y-91680000D02*
X142049700Y-91680000D01*
X141502700Y-94615000D02*
X141502700Y-92075000D01*
X141135000Y-92075000D02*
X141502700Y-92075000D01*
X141502700Y-92075000D02*
X141870300Y-92075000D01*
X131660600Y-82919700D02*
X131445000Y-82919700D01*
X131840000Y-82740300D02*
X131660600Y-82919700D01*
X131840000Y-81915000D02*
X131840000Y-82740300D01*
X131445000Y-83655000D02*
X131445000Y-82919700D01*
X131032400Y-83655000D02*
X128905000Y-83655000D01*
X134480300Y-86169700D02*
X134150000Y-86169700D01*
X134810400Y-85839600D02*
X134480300Y-86169700D01*
X134810400Y-84852700D02*
X134810400Y-85839600D01*
X134263100Y-84305400D02*
X134810400Y-84852700D01*
X131682800Y-84305400D02*
X134263100Y-84305400D01*
X131032400Y-83655000D02*
X131682800Y-84305400D01*
X128689400Y-82919700D02*
X128905000Y-82919700D01*
X128510000Y-82740300D02*
X128689400Y-82919700D01*
X128510000Y-81915000D02*
X128510000Y-82740300D01*
X128905000Y-83655000D02*
X128905000Y-82919700D01*
X139700000Y-106680000D02*
X138524700Y-106680000D01*
X138524700Y-106312600D02*
X136617400Y-104405300D01*
X138524700Y-106680000D02*
X138524700Y-106312600D01*
X136617400Y-104405300D02*
X133350000Y-104405300D01*
X141135000Y-94615000D02*
X140399700Y-94615000D01*
X141135000Y-94615000D02*
X141318900Y-94615000D01*
X141318900Y-94615000D02*
X141502700Y-94615000D01*
X141654700Y-94615000D02*
X142049700Y-95010000D01*
X141502700Y-94615000D02*
X141654700Y-94615000D01*
X142875000Y-95010000D02*
X142049700Y-95010000D01*
X136715400Y-104307300D02*
X136617400Y-104405300D01*
X136715400Y-100725100D02*
X136715400Y-104307300D01*
X137235400Y-100725100D02*
X136715400Y-100725100D01*
X140399700Y-97560800D02*
X137235400Y-100725100D01*
X140399700Y-94615000D02*
X140399700Y-97560800D01*
X136715400Y-100725100D02*
X135685300Y-99695000D01*
X134950000Y-99695000D02*
X135037800Y-99695000D01*
X135037800Y-99695000D02*
X135685300Y-99695000D01*
X135037800Y-98148100D02*
X135037800Y-99695000D01*
X135035000Y-98145300D02*
X135037800Y-98148100D01*
X135035000Y-96945000D02*
X135035000Y-98145300D01*
X133350000Y-103670000D02*
X133350000Y-104037600D01*
X133350000Y-104037600D02*
X133350000Y-104405300D01*
X132002900Y-104037600D02*
X131635300Y-103670000D01*
X133350000Y-104037600D02*
X132002900Y-104037600D01*
X130810000Y-103670000D02*
X131635300Y-103670000D01*
X133735000Y-89745000D02*
X133735000Y-94689800D01*
X128535000Y-95233500D02*
X128535000Y-95744700D01*
X129078700Y-94689800D02*
X128535000Y-95233500D01*
X133735000Y-94689800D02*
X129078700Y-94689800D01*
X135035000Y-96945000D02*
X135035000Y-96344800D01*
X134385000Y-96945000D02*
X134385000Y-95744700D01*
X134797800Y-95744700D02*
X134385000Y-95744700D01*
X135035000Y-95981900D02*
X134797800Y-95744700D01*
X135035000Y-96344800D02*
X135035000Y-95981900D01*
X134385000Y-95339800D02*
X134385000Y-95744700D01*
X133735000Y-94689800D02*
X134385000Y-95339800D01*
X122525600Y-98145300D02*
X121975300Y-97595000D01*
X126585000Y-98145300D02*
X122525600Y-98145300D01*
X126585000Y-96945000D02*
X126585000Y-98145300D01*
X120650000Y-97595000D02*
X121975300Y-97595000D01*
X129681900Y-90945300D02*
X129359700Y-91267500D01*
X130485000Y-90945300D02*
X129681900Y-90945300D01*
X130485000Y-89745000D02*
X130485000Y-90945300D01*
X129035700Y-88544700D02*
X128735500Y-88244500D01*
X129185000Y-88544700D02*
X129035700Y-88544700D01*
X129185000Y-89745000D02*
X129185000Y-88544700D01*
X128535000Y-89745000D02*
X128535000Y-90945300D01*
X127509500Y-91970800D02*
X128535000Y-90945300D01*
X126612800Y-91970800D02*
X127509500Y-91970800D01*
X126357800Y-91715800D02*
X126612800Y-91970800D01*
X119998100Y-91715800D02*
X126357800Y-91715800D01*
X118455900Y-93258000D02*
X119998100Y-91715800D01*
X127885000Y-89745000D02*
X127885000Y-88544700D01*
X122807800Y-88544700D02*
X122651700Y-88700800D01*
X127885000Y-88544700D02*
X122807800Y-88544700D01*
X122625300Y-89745000D02*
X121975300Y-89095000D01*
X126585000Y-89745000D02*
X122625300Y-89745000D01*
X120650000Y-89095000D02*
X121975300Y-89095000D01*
X132435000Y-89745000D02*
X132435000Y-88544700D01*
X131445000Y-87529000D02*
X131376800Y-87529000D01*
X131445000Y-87554700D02*
X131445000Y-87529000D01*
X132435000Y-88544700D02*
X131445000Y-87554700D01*
X131445000Y-87529000D02*
X131445000Y-85255000D01*
X132345300Y-85330000D02*
X132270300Y-85255000D01*
X133985000Y-85330000D02*
X132345300Y-85330000D01*
X131445000Y-85255000D02*
X132270300Y-85255000D01*
X131785000Y-89745000D02*
X131785000Y-88544700D01*
X128905000Y-85255000D02*
X128905000Y-85520900D01*
X128905000Y-85520900D02*
X128905000Y-85990300D01*
X126365000Y-85330000D02*
X127190300Y-85330000D01*
X128905000Y-85520900D02*
X127700900Y-85520900D01*
X127381200Y-85520900D02*
X127190300Y-85330000D01*
X127700900Y-85520900D02*
X127381200Y-85520900D01*
X131366800Y-88544700D02*
X131785000Y-88544700D01*
X128905000Y-86082900D02*
X131366800Y-88544700D01*
X128905000Y-85990300D02*
X128905000Y-86082900D01*
X129185000Y-95676900D02*
X129416800Y-95445100D01*
X129185000Y-96945000D02*
X129185000Y-95676900D01*
X129835000Y-98891300D02*
X129835000Y-100728500D01*
X129751600Y-98807900D02*
X129835000Y-98891300D01*
X129751600Y-97028400D02*
X129751600Y-98807900D01*
X129835000Y-96945000D02*
X129751600Y-97028400D01*
X130485000Y-96945000D02*
X130485000Y-98450300D01*
X133085000Y-98604700D02*
X133350000Y-98869700D01*
X133085000Y-96945000D02*
X133085000Y-98604700D01*
X133350000Y-99695000D02*
X133350000Y-98869700D01*
X133735000Y-95744700D02*
X133085000Y-95744700D01*
X133735000Y-96945000D02*
X133735000Y-95744700D01*
X133085000Y-96945000D02*
X133085000Y-95744700D01*
X127235000Y-91093700D02*
X127087000Y-91241700D01*
X127235000Y-89745000D02*
X127235000Y-91093700D01*
X132550000Y-86995000D02*
X132550000Y-87820300D01*
X127885000Y-98454700D02*
X127470000Y-98869700D01*
X127885000Y-96945000D02*
X127885000Y-98454700D01*
X133085000Y-88355300D02*
X133085000Y-89745000D01*
X132550000Y-87820300D02*
X133085000Y-88355300D01*
X133085000Y-89745000D02*
X133085000Y-90945300D01*
X127885000Y-96945000D02*
X127885000Y-95744700D01*
X132186300Y-90945300D02*
X133085000Y-90945300D01*
X127885000Y-95246600D02*
X132186300Y-90945300D01*
X127885000Y-95744700D02*
X127885000Y-95246600D01*
X127470000Y-99695000D02*
X127470000Y-99282300D01*
X127470000Y-99282300D02*
X127470000Y-98869700D01*
X118015300Y-106312700D02*
X118015300Y-106680000D01*
X125045700Y-99282300D02*
X118015300Y-106312700D01*
X127470000Y-99282300D02*
X125045700Y-99282300D01*
X116840000Y-106680000D02*
X118015300Y-106680000D01*
X131135000Y-89745000D02*
X131135000Y-90945300D01*
X129623200Y-92457100D02*
X131135000Y-90945300D01*
X125179000Y-92457100D02*
X129623200Y-92457100D01*
X117645900Y-88386000D02*
X117645900Y-89277000D01*
X119535900Y-86496000D02*
X117645900Y-88386000D01*
X128089400Y-86496000D02*
X119535900Y-86496000D01*
X129835000Y-88241600D02*
X128089400Y-86496000D01*
X129835000Y-89745000D02*
X129835000Y-88241600D01*
X127235000Y-96945000D02*
X127235000Y-95744700D01*
X122869800Y-95744700D02*
X122275800Y-95150700D01*
X127235000Y-95744700D02*
X122869800Y-95744700D01*
X130997200Y-95744700D02*
X130705100Y-95452600D01*
X131135000Y-95744700D02*
X130997200Y-95744700D01*
X131135000Y-96945000D02*
X131135000Y-95744700D01*
D20*
G36*
X142752287Y-80720719D02*
X142109929Y-81149929D01*
X141680719Y-81792287D01*
X141530000Y-82550000D01*
X141680719Y-83307713D01*
X142109929Y-83950071D01*
X142752287Y-84379281D01*
X143510000Y-84530000D01*
X144267713Y-84379281D01*
X144910071Y-83950071D01*
X145339281Y-83307713D01*
X145340001Y-83304094D01*
X145340000Y-104655902D01*
X145339281Y-104652287D01*
X144910071Y-104009929D01*
X144267713Y-103580719D01*
X143510000Y-103430000D01*
X142752287Y-103580719D01*
X142109929Y-104009929D01*
X141680719Y-104652287D01*
X141530000Y-105410000D01*
X141680719Y-106167713D01*
X142109929Y-106810071D01*
X142752287Y-107239281D01*
X142755902Y-107240000D01*
X141046101Y-107240000D01*
X141141486Y-107036892D01*
X141020819Y-106807000D01*
X139827000Y-106807000D01*
X139827000Y-106827000D01*
X139573000Y-106827000D01*
X139573000Y-106807000D01*
X139553000Y-106807000D01*
X139553000Y-106553000D01*
X139573000Y-106553000D01*
X139573000Y-105359845D01*
X139827000Y-105359845D01*
X139827000Y-106553000D01*
X141020819Y-106553000D01*
X141141486Y-106323108D01*
X140895183Y-105798642D01*
X140466924Y-105408355D01*
X140056890Y-105238524D01*
X139827000Y-105359845D01*
X139573000Y-105359845D01*
X139343110Y-105238524D01*
X138933076Y-105408355D01*
X138504817Y-105798642D01*
X138443843Y-105928478D01*
X138230625Y-105609375D01*
X137739418Y-105281161D01*
X137306256Y-105195000D01*
X137013744Y-105195000D01*
X136580582Y-105281161D01*
X136089375Y-105609375D01*
X135890000Y-105907761D01*
X135690625Y-105609375D01*
X135199418Y-105281161D01*
X134766256Y-105195000D01*
X134473744Y-105195000D01*
X134040582Y-105281161D01*
X133549375Y-105609375D01*
X133350000Y-105907761D01*
X133150625Y-105609375D01*
X132659418Y-105281161D01*
X132226256Y-105195000D01*
X131933744Y-105195000D01*
X131500582Y-105281161D01*
X131009375Y-105609375D01*
X130810000Y-105907761D01*
X130610625Y-105609375D01*
X130119418Y-105281161D01*
X129686256Y-105195000D01*
X129393744Y-105195000D01*
X129153642Y-105242759D01*
X129864188Y-104532214D01*
X129950301Y-104618327D01*
X130183690Y-104715000D01*
X130524250Y-104715000D01*
X130683000Y-104556250D01*
X130683000Y-103797000D01*
X130663000Y-103797000D01*
X130663000Y-103694600D01*
X130957000Y-103694600D01*
X130957000Y-103797000D01*
X130937000Y-103797000D01*
X130937000Y-104556250D01*
X131095750Y-104715000D01*
X131436310Y-104715000D01*
X131669699Y-104618327D01*
X131848327Y-104439698D01*
X131945000Y-104206309D01*
X131945000Y-103955750D01*
X131786252Y-103797002D01*
X131945000Y-103797002D01*
X131945000Y-103694600D01*
X132215000Y-103694600D01*
X132215000Y-103797002D01*
X132373748Y-103797002D01*
X132215000Y-103955750D01*
X132215000Y-104206309D01*
X132311673Y-104439698D01*
X132490301Y-104618327D01*
X132723690Y-104715000D01*
X133064250Y-104715000D01*
X133223000Y-104556250D01*
X133223000Y-103797000D01*
X133203000Y-103797000D01*
X133203000Y-103694600D01*
X133497000Y-103694600D01*
X133497000Y-103797000D01*
X133477000Y-103797000D01*
X133477000Y-104556250D01*
X133635750Y-104715000D01*
X133976310Y-104715000D01*
X134209699Y-104618327D01*
X134388327Y-104439698D01*
X134485000Y-104206309D01*
X134485000Y-103955750D01*
X134326252Y-103797002D01*
X134485000Y-103797002D01*
X134485000Y-103694600D01*
X134742560Y-103694600D01*
X134742560Y-104080000D01*
X134791843Y-104327765D01*
X134932191Y-104537809D01*
X135142235Y-104678157D01*
X135390000Y-104727440D01*
X136390000Y-104727440D01*
X136637765Y-104678157D01*
X136847809Y-104537809D01*
X136988157Y-104327765D01*
X137037440Y-104080000D01*
X137037440Y-103410000D01*
X136988157Y-103162235D01*
X136847809Y-102952191D01*
X136724802Y-102870000D01*
X136847809Y-102787809D01*
X136988157Y-102577765D01*
X137037440Y-102330000D01*
X137037440Y-101660000D01*
X136988157Y-101412235D01*
X136847809Y-101202191D01*
X136637765Y-101061843D01*
X136390000Y-101012560D01*
X135390000Y-101012560D01*
X135142235Y-101061843D01*
X134932191Y-101202191D01*
X134910269Y-101235000D01*
X134329731Y-101235000D01*
X134307809Y-101202191D01*
X134097765Y-101061843D01*
X134069496Y-101056220D01*
X134065904Y-101038162D01*
X133978684Y-100907629D01*
X133914581Y-100811692D01*
X134007765Y-100793157D01*
X134147058Y-100700083D01*
X134180302Y-100733327D01*
X134413691Y-100830000D01*
X134664250Y-100830000D01*
X134823000Y-100671250D01*
X134823000Y-99822000D01*
X135077000Y-99822000D01*
X135077000Y-100671250D01*
X135235750Y-100830000D01*
X135486309Y-100830000D01*
X135719698Y-100733327D01*
X135898327Y-100554699D01*
X135995000Y-100321310D01*
X135995000Y-99980750D01*
X135836250Y-99822000D01*
X135077000Y-99822000D01*
X134823000Y-99822000D01*
X134803000Y-99822000D01*
X134803000Y-99568000D01*
X134823000Y-99568000D01*
X134823000Y-98718750D01*
X135077000Y-98718750D01*
X135077000Y-99568000D01*
X135836250Y-99568000D01*
X135995000Y-99409250D01*
X135995000Y-99068690D01*
X135898327Y-98835301D01*
X135719698Y-98656673D01*
X135486309Y-98560000D01*
X135235750Y-98560000D01*
X135077000Y-98718750D01*
X134823000Y-98718750D01*
X134664250Y-98560000D01*
X134413691Y-98560000D01*
X134180302Y-98656673D01*
X134147058Y-98689917D01*
X134080248Y-98645275D01*
X134065904Y-98573163D01*
X133991125Y-98461249D01*
X134030073Y-98453502D01*
X134033690Y-98455000D01*
X134113750Y-98455000D01*
X134136397Y-98432353D01*
X134207765Y-98418157D01*
X134389020Y-98297045D01*
X134450301Y-98358327D01*
X134636847Y-98435597D01*
X134656250Y-98455000D01*
X134763750Y-98455000D01*
X134783153Y-98435597D01*
X134969699Y-98358327D01*
X135147500Y-98180525D01*
X135147500Y-98296250D01*
X135306250Y-98455000D01*
X135386310Y-98455000D01*
X135619699Y-98358327D01*
X135798327Y-98179698D01*
X135895000Y-97946309D01*
X135895000Y-97230750D01*
X135736250Y-97072000D01*
X135147500Y-97072000D01*
X135147500Y-97133250D01*
X135086250Y-97072000D01*
X134888000Y-97072000D01*
X134888000Y-96818000D01*
X135086250Y-96818000D01*
X135147500Y-96756750D01*
X135147500Y-96818000D01*
X135736250Y-96818000D01*
X135895000Y-96659250D01*
X135895000Y-95943691D01*
X135798327Y-95710302D01*
X135619699Y-95531673D01*
X135386310Y-95435000D01*
X135306250Y-95435000D01*
X135147500Y-95593750D01*
X135147500Y-95709475D01*
X134969699Y-95531673D01*
X134783153Y-95454403D01*
X134763750Y-95435000D01*
X134656250Y-95435000D01*
X134636847Y-95454403D01*
X134512002Y-95506115D01*
X134512002Y-95435000D01*
X134442109Y-95435000D01*
X134282929Y-95196771D01*
X134031537Y-95028796D01*
X133809852Y-94984700D01*
X133735000Y-94969811D01*
X133660148Y-94984700D01*
X133159852Y-94984700D01*
X133085000Y-94969811D01*
X133010148Y-94984700D01*
X132788463Y-95028796D01*
X132537071Y-95196771D01*
X132386203Y-95422560D01*
X132210000Y-95422560D01*
X132110000Y-95442451D01*
X132010000Y-95422560D01*
X131833797Y-95422560D01*
X131740100Y-95282333D01*
X131740100Y-95246726D01*
X131582531Y-94866320D01*
X131291380Y-94575169D01*
X130910974Y-94417600D01*
X130499226Y-94417600D01*
X130118820Y-94575169D01*
X130064700Y-94629289D01*
X130003080Y-94567669D01*
X129745447Y-94460954D01*
X132501102Y-91705300D01*
X133010148Y-91705300D01*
X133085000Y-91720189D01*
X133381537Y-91661204D01*
X133632929Y-91493229D01*
X133735000Y-91340469D01*
X133791574Y-91425136D01*
X133837072Y-91493229D01*
X133900528Y-91535629D01*
X136296843Y-93931945D01*
X136277300Y-93979126D01*
X136277300Y-94390874D01*
X136434869Y-94771280D01*
X136726020Y-95062431D01*
X137106426Y-95220000D01*
X137518174Y-95220000D01*
X137898580Y-95062431D01*
X138016011Y-94945000D01*
X138054899Y-94945000D01*
X138209369Y-95099470D01*
X138251771Y-95162929D01*
X138377182Y-95246726D01*
X138503162Y-95330904D01*
X138521220Y-95334496D01*
X138526843Y-95362765D01*
X138667191Y-95572809D01*
X138700001Y-95594732D01*
X138700001Y-96175268D01*
X138667191Y-96197191D01*
X138526843Y-96407235D01*
X138477560Y-96655000D01*
X138477560Y-97655000D01*
X138526843Y-97902765D01*
X138667191Y-98112809D01*
X138877235Y-98253157D01*
X139125000Y-98302440D01*
X139795000Y-98302440D01*
X140042765Y-98253157D01*
X140252809Y-98112809D01*
X140335000Y-97989802D01*
X140417191Y-98112809D01*
X140627235Y-98253157D01*
X140875000Y-98302440D01*
X141545000Y-98302440D01*
X141792765Y-98253157D01*
X142002809Y-98112809D01*
X142143157Y-97902765D01*
X142148780Y-97874496D01*
X142166837Y-97870904D01*
X142362745Y-97740002D01*
X142375000Y-97742440D01*
X143375000Y-97742440D01*
X143570333Y-97703586D01*
X143791026Y-97795000D01*
X144202774Y-97795000D01*
X144583180Y-97637431D01*
X144874331Y-97346280D01*
X145031900Y-96965874D01*
X145031900Y-96554126D01*
X144874331Y-96173720D01*
X144583180Y-95882569D01*
X144202774Y-95725000D01*
X143893025Y-95725000D01*
X143913327Y-95704698D01*
X144010000Y-95471309D01*
X144010000Y-95295750D01*
X143851250Y-95137000D01*
X143002000Y-95137000D01*
X143002000Y-95157000D01*
X142748000Y-95157000D01*
X142748000Y-95137000D01*
X142728000Y-95137000D01*
X142728000Y-94883000D01*
X142748000Y-94883000D01*
X142748000Y-94198750D01*
X143002000Y-94198750D01*
X143002000Y-94883000D01*
X143851250Y-94883000D01*
X144010000Y-94724250D01*
X144010000Y-94548691D01*
X143913327Y-94315302D01*
X143734699Y-94136673D01*
X143501310Y-94040000D01*
X143160750Y-94040000D01*
X143002000Y-94198750D01*
X142748000Y-94198750D01*
X142589250Y-94040000D01*
X142248690Y-94040000D01*
X142180000Y-94068452D01*
X142180000Y-93988690D01*
X142083327Y-93755301D01*
X141904698Y-93576673D01*
X141671309Y-93480000D01*
X141420750Y-93480000D01*
X141262000Y-93638750D01*
X141262000Y-94488000D01*
X141282000Y-94488000D01*
X141282000Y-94742000D01*
X141262000Y-94742000D01*
X141262000Y-95591250D01*
X141420750Y-95750000D01*
X141671309Y-95750000D01*
X141828473Y-95684901D01*
X141836673Y-95704698D01*
X142015301Y-95883327D01*
X142032216Y-95890333D01*
X141917191Y-95967191D01*
X141883070Y-96018256D01*
X141753163Y-96044096D01*
X141747547Y-96047849D01*
X141545000Y-96007560D01*
X140875000Y-96007560D01*
X140627235Y-96056843D01*
X140417191Y-96197191D01*
X140335000Y-96320198D01*
X140252809Y-96197191D01*
X140220000Y-96175269D01*
X140220000Y-95783088D01*
X140250904Y-95736837D01*
X140265248Y-95664725D01*
X140332058Y-95620083D01*
X140365302Y-95653327D01*
X140598691Y-95750000D01*
X140849250Y-95750000D01*
X141008000Y-95591250D01*
X141008000Y-94742000D01*
X140988000Y-94742000D01*
X140988000Y-94488000D01*
X141008000Y-94488000D01*
X141008000Y-93638750D01*
X140849250Y-93480000D01*
X140598691Y-93480000D01*
X140365302Y-93576673D01*
X140332058Y-93609917D01*
X140192765Y-93516843D01*
X139945000Y-93467560D01*
X139125000Y-93467560D01*
X138877235Y-93516843D01*
X138807465Y-93563462D01*
X138666237Y-93469096D01*
X138444552Y-93425000D01*
X138444547Y-93425000D01*
X138369700Y-93410112D01*
X138294853Y-93425000D01*
X138016011Y-93425000D01*
X137898580Y-93307569D01*
X137767973Y-93253470D01*
X135642578Y-91128077D01*
X135717809Y-91077809D01*
X135858157Y-90867765D01*
X135907440Y-90620000D01*
X135907440Y-90505000D01*
X136780899Y-90505000D01*
X137531900Y-91256002D01*
X137531900Y-91422074D01*
X137689469Y-91802480D01*
X137980620Y-92093631D01*
X138361026Y-92251200D01*
X138477560Y-92251200D01*
X138477560Y-92575000D01*
X138526843Y-92822765D01*
X138667191Y-93032809D01*
X138877235Y-93173157D01*
X139125000Y-93222440D01*
X139945000Y-93222440D01*
X140192765Y-93173157D01*
X140332058Y-93080083D01*
X140365302Y-93113327D01*
X140598691Y-93210000D01*
X140849250Y-93210000D01*
X141008000Y-93051250D01*
X141008000Y-92202000D01*
X140988000Y-92202000D01*
X140988000Y-91948000D01*
X141008000Y-91948000D01*
X141008000Y-91098750D01*
X140849250Y-90940000D01*
X140598691Y-90940000D01*
X140365302Y-91036673D01*
X140332058Y-91069917D01*
X140265248Y-91025275D01*
X140250904Y-90953163D01*
X140082929Y-90701771D01*
X139994584Y-90642741D01*
X140042765Y-90633157D01*
X140252809Y-90492809D01*
X140335000Y-90369802D01*
X140417191Y-90492809D01*
X140627235Y-90633157D01*
X140875000Y-90682440D01*
X141545000Y-90682440D01*
X141747547Y-90642151D01*
X141753163Y-90645904D01*
X141883070Y-90671744D01*
X141917191Y-90722809D01*
X142032216Y-90799667D01*
X142015301Y-90806673D01*
X141836673Y-90985302D01*
X141828473Y-91005099D01*
X141671309Y-90940000D01*
X141420750Y-90940000D01*
X141262000Y-91098750D01*
X141262000Y-91948000D01*
X141282000Y-91948000D01*
X141282000Y-92202000D01*
X141262000Y-92202000D01*
X141262000Y-93051250D01*
X141420750Y-93210000D01*
X141671309Y-93210000D01*
X141904698Y-93113327D01*
X142083327Y-92934699D01*
X142180000Y-92701310D01*
X142180000Y-92621548D01*
X142248690Y-92650000D01*
X142589250Y-92650000D01*
X142748000Y-92491250D01*
X142748000Y-91807000D01*
X143002000Y-91807000D01*
X143002000Y-92491250D01*
X143160750Y-92650000D01*
X143501310Y-92650000D01*
X143734699Y-92553327D01*
X143913327Y-92374698D01*
X144010000Y-92141309D01*
X144010000Y-91965750D01*
X143851250Y-91807000D01*
X143002000Y-91807000D01*
X142748000Y-91807000D01*
X142728000Y-91807000D01*
X142728000Y-91553000D01*
X142748000Y-91553000D01*
X142748000Y-91533000D01*
X143002000Y-91533000D01*
X143002000Y-91553000D01*
X143851250Y-91553000D01*
X144010000Y-91394250D01*
X144010000Y-91218691D01*
X143913327Y-90985302D01*
X143734699Y-90806673D01*
X143717784Y-90799667D01*
X143832809Y-90722809D01*
X143866930Y-90671744D01*
X143996837Y-90645904D01*
X144248229Y-90477929D01*
X144282603Y-90426485D01*
X144565680Y-90309231D01*
X144856831Y-90018080D01*
X145014400Y-89637674D01*
X145014400Y-89225926D01*
X144856831Y-88845520D01*
X144565680Y-88554369D01*
X144185274Y-88396800D01*
X143773526Y-88396800D01*
X143393120Y-88554369D01*
X143101969Y-88845520D01*
X143059703Y-88947560D01*
X142375000Y-88947560D01*
X142362745Y-88949998D01*
X142166837Y-88819096D01*
X142148780Y-88815504D01*
X142143157Y-88787235D01*
X142002809Y-88577191D01*
X141792765Y-88436843D01*
X141545000Y-88387560D01*
X140875000Y-88387560D01*
X140627235Y-88436843D01*
X140417191Y-88577191D01*
X140335000Y-88700198D01*
X140252809Y-88577191D01*
X140042765Y-88436843D01*
X139795000Y-88387560D01*
X139125000Y-88387560D01*
X138877235Y-88436843D01*
X138667191Y-88577191D01*
X138526843Y-88787235D01*
X138477560Y-89035000D01*
X138477560Y-89143333D01*
X138413996Y-89238463D01*
X138355011Y-89535000D01*
X138369901Y-89609856D01*
X138369901Y-89944399D01*
X137686031Y-89260530D01*
X137643629Y-89197071D01*
X137392237Y-89029096D01*
X137170552Y-88985000D01*
X137170547Y-88985000D01*
X137095700Y-88970112D01*
X137020853Y-88985000D01*
X135907440Y-88985000D01*
X135907440Y-88870000D01*
X135858157Y-88622235D01*
X135717809Y-88412191D01*
X135507765Y-88271843D01*
X135260000Y-88222560D01*
X134810000Y-88222560D01*
X134710000Y-88242451D01*
X134610000Y-88222560D01*
X134160000Y-88222560D01*
X134089927Y-88236498D01*
X134086310Y-88235000D01*
X134006250Y-88235000D01*
X133983603Y-88257647D01*
X133912235Y-88271843D01*
X133862002Y-88305408D01*
X133862002Y-88235000D01*
X133835960Y-88235000D01*
X133815074Y-88130000D01*
X133864250Y-88130000D01*
X134023000Y-87971250D01*
X134023000Y-87122000D01*
X134277000Y-87122000D01*
X134277000Y-87971250D01*
X134435750Y-88130000D01*
X134686309Y-88130000D01*
X134919698Y-88033327D01*
X135098327Y-87854699D01*
X135195000Y-87621310D01*
X135195000Y-87280750D01*
X135036250Y-87122000D01*
X134277000Y-87122000D01*
X134023000Y-87122000D01*
X134003000Y-87122000D01*
X134003000Y-86868000D01*
X134023000Y-86868000D01*
X134023000Y-86848000D01*
X134277000Y-86848000D01*
X134277000Y-86868000D01*
X135036250Y-86868000D01*
X135195000Y-86709250D01*
X135195000Y-86368690D01*
X135098327Y-86135301D01*
X135000097Y-86037072D01*
X135083157Y-85912765D01*
X135132440Y-85665000D01*
X135132440Y-84995000D01*
X135089941Y-84781343D01*
X135534600Y-85226002D01*
X135534600Y-85392074D01*
X135692169Y-85772480D01*
X135983320Y-86063631D01*
X136363726Y-86221200D01*
X136775474Y-86221200D01*
X137155880Y-86063631D01*
X137447031Y-85772480D01*
X137604600Y-85392074D01*
X137604600Y-84980326D01*
X137447031Y-84599920D01*
X137155880Y-84308769D01*
X136775474Y-84151200D01*
X136609402Y-84151200D01*
X135553731Y-83095530D01*
X135511329Y-83032071D01*
X135259937Y-82864096D01*
X135038252Y-82820000D01*
X135038247Y-82820000D01*
X134963400Y-82805112D01*
X134955794Y-82806625D01*
X134942809Y-82787191D01*
X134732765Y-82646843D01*
X134704496Y-82641220D01*
X134700904Y-82623163D01*
X134570002Y-82427255D01*
X134572440Y-82415000D01*
X134572440Y-81415000D01*
X134523157Y-81167235D01*
X134382809Y-80957191D01*
X134172765Y-80816843D01*
X133925000Y-80767560D01*
X133255000Y-80767560D01*
X133007235Y-80816843D01*
X132797191Y-80957191D01*
X132720333Y-81072216D01*
X132713327Y-81055301D01*
X132534698Y-80876673D01*
X132301309Y-80780000D01*
X132125750Y-80780000D01*
X131967000Y-80938750D01*
X131967000Y-81788000D01*
X131987000Y-81788000D01*
X131987000Y-82042000D01*
X131967000Y-82042000D01*
X131967000Y-82062000D01*
X131713000Y-82062000D01*
X131713000Y-82042000D01*
X131028750Y-82042000D01*
X130870000Y-82200750D01*
X130870000Y-82541310D01*
X130898452Y-82610000D01*
X130818690Y-82610000D01*
X130585301Y-82706673D01*
X130406673Y-82885302D01*
X130310000Y-83118691D01*
X130310000Y-83369250D01*
X130468750Y-83528000D01*
X131318000Y-83528000D01*
X131318000Y-83508000D01*
X131572000Y-83508000D01*
X131572000Y-83528000D01*
X132421250Y-83528000D01*
X132580000Y-83369250D01*
X132580000Y-83118691D01*
X132514901Y-82961527D01*
X132534698Y-82953327D01*
X132713327Y-82774699D01*
X132720333Y-82757784D01*
X132797191Y-82872809D01*
X132848256Y-82906930D01*
X132869387Y-83013157D01*
X132874097Y-83036837D01*
X132877849Y-83042452D01*
X132837560Y-83245000D01*
X132837560Y-83915000D01*
X132886843Y-84162765D01*
X133027191Y-84372809D01*
X133150198Y-84455000D01*
X133027191Y-84537191D01*
X133005269Y-84570000D01*
X132613088Y-84570000D01*
X132566837Y-84539096D01*
X132494725Y-84524752D01*
X132450083Y-84457942D01*
X132483327Y-84424698D01*
X132580000Y-84191309D01*
X132580000Y-83940750D01*
X132421250Y-83782000D01*
X131572000Y-83782000D01*
X131572000Y-83802000D01*
X131318000Y-83802000D01*
X131318000Y-83782000D01*
X130468750Y-83782000D01*
X130310000Y-83940750D01*
X130310000Y-84191309D01*
X130406673Y-84424698D01*
X130439917Y-84457942D01*
X130346843Y-84597235D01*
X130297560Y-84845000D01*
X130297560Y-85665000D01*
X130346843Y-85912765D01*
X130487191Y-86122809D01*
X130685001Y-86254982D01*
X130685000Y-86757089D01*
X130669495Y-86772594D01*
X129925655Y-86028754D01*
X130003157Y-85912765D01*
X130052440Y-85665000D01*
X130052440Y-84845000D01*
X130003157Y-84597235D01*
X129910083Y-84457942D01*
X129943327Y-84424698D01*
X130040000Y-84191309D01*
X130040000Y-83940750D01*
X129881250Y-83782000D01*
X129032000Y-83782000D01*
X129032000Y-83802000D01*
X128778000Y-83802000D01*
X128778000Y-83782000D01*
X128758000Y-83782000D01*
X128758000Y-83528000D01*
X128778000Y-83528000D01*
X128778000Y-83508000D01*
X129032000Y-83508000D01*
X129032000Y-83528000D01*
X129881250Y-83528000D01*
X130040000Y-83369250D01*
X130040000Y-83118691D01*
X129943327Y-82885302D01*
X129764699Y-82706673D01*
X129531310Y-82610000D01*
X129451548Y-82610000D01*
X129480000Y-82541310D01*
X129480000Y-82200750D01*
X129321250Y-82042000D01*
X128637000Y-82042000D01*
X128637000Y-82062000D01*
X128383000Y-82062000D01*
X128383000Y-82042000D01*
X128363000Y-82042000D01*
X128363000Y-81788000D01*
X128383000Y-81788000D01*
X128383000Y-80938750D01*
X128637000Y-80938750D01*
X128637000Y-81788000D01*
X129321250Y-81788000D01*
X129480000Y-81629250D01*
X129480000Y-81288690D01*
X130870000Y-81288690D01*
X130870000Y-81629250D01*
X131028750Y-81788000D01*
X131713000Y-81788000D01*
X131713000Y-80938750D01*
X131554250Y-80780000D01*
X131378691Y-80780000D01*
X131145302Y-80876673D01*
X130966673Y-81055301D01*
X130870000Y-81288690D01*
X129480000Y-81288690D01*
X129383327Y-81055301D01*
X129204698Y-80876673D01*
X128971309Y-80780000D01*
X128795750Y-80780000D01*
X128637000Y-80938750D01*
X128383000Y-80938750D01*
X128224250Y-80780000D01*
X128048691Y-80780000D01*
X127815302Y-80876673D01*
X127636673Y-81055301D01*
X127629667Y-81072216D01*
X127552809Y-80957191D01*
X127342765Y-80816843D01*
X127095000Y-80767560D01*
X126425000Y-80767560D01*
X126177235Y-80816843D01*
X125967191Y-80957191D01*
X125826843Y-81167235D01*
X125777560Y-81415000D01*
X125777560Y-82415000D01*
X125779998Y-82427255D01*
X125649096Y-82623163D01*
X125645504Y-82641220D01*
X125617235Y-82646843D01*
X125407191Y-82787191D01*
X125266843Y-82997235D01*
X125217560Y-83245000D01*
X125217560Y-83915000D01*
X125266843Y-84162765D01*
X125407191Y-84372809D01*
X125530198Y-84455000D01*
X125407191Y-84537191D01*
X125266843Y-84747235D01*
X125217560Y-84995000D01*
X125217560Y-85665000D01*
X125231683Y-85736000D01*
X119610748Y-85736000D01*
X119535900Y-85721112D01*
X119461052Y-85736000D01*
X119461048Y-85736000D01*
X119239363Y-85780096D01*
X118987971Y-85948071D01*
X118945571Y-86011527D01*
X117161430Y-87795669D01*
X117097971Y-87838071D01*
X116929996Y-88089464D01*
X116885900Y-88311149D01*
X116885900Y-88311153D01*
X116871012Y-88386000D01*
X116885900Y-88460848D01*
X116885900Y-88573289D01*
X116768469Y-88690720D01*
X116610900Y-89071126D01*
X116610900Y-89482874D01*
X116768469Y-89863280D01*
X117059620Y-90154431D01*
X117440026Y-90312000D01*
X117851774Y-90312000D01*
X118232180Y-90154431D01*
X118523331Y-89863280D01*
X118680900Y-89482874D01*
X118680900Y-89071126D01*
X118523331Y-88690720D01*
X118469656Y-88637045D01*
X119002560Y-88104141D01*
X119002560Y-91345000D01*
X119050929Y-91588169D01*
X118416099Y-92223000D01*
X118250026Y-92223000D01*
X117869620Y-92380569D01*
X117578469Y-92671720D01*
X117420900Y-93052126D01*
X117420900Y-93463874D01*
X117578469Y-93844280D01*
X117869620Y-94135431D01*
X118250026Y-94293000D01*
X118661774Y-94293000D01*
X119042180Y-94135431D01*
X119333331Y-93844280D01*
X119490900Y-93463874D01*
X119490900Y-93297801D01*
X120312902Y-92475800D01*
X124144000Y-92475800D01*
X124144000Y-92662974D01*
X124301569Y-93043380D01*
X124592720Y-93334531D01*
X124973126Y-93492100D01*
X125384874Y-93492100D01*
X125765280Y-93334531D01*
X125882711Y-93217100D01*
X128839699Y-93217100D01*
X127400528Y-94656271D01*
X127337072Y-94698671D01*
X127169096Y-94950063D01*
X127162291Y-94984274D01*
X127160148Y-94984700D01*
X123310800Y-94984700D01*
X123310800Y-94944826D01*
X123153231Y-94564420D01*
X122862080Y-94273269D01*
X122481674Y-94115700D01*
X122069926Y-94115700D01*
X121689520Y-94273269D01*
X121398369Y-94564420D01*
X121343221Y-94697560D01*
X119650000Y-94697560D01*
X119402235Y-94746843D01*
X119192191Y-94887191D01*
X119051843Y-95097235D01*
X119002560Y-95345000D01*
X119002560Y-99845000D01*
X119051843Y-100092765D01*
X119192191Y-100302809D01*
X119402235Y-100443157D01*
X119650000Y-100492440D01*
X121650000Y-100492440D01*
X121897765Y-100443157D01*
X122107809Y-100302809D01*
X122248157Y-100092765D01*
X122297440Y-99845000D01*
X122297440Y-98874805D01*
X122450748Y-98905300D01*
X122450752Y-98905300D01*
X122525600Y-98920188D01*
X122600448Y-98905300D01*
X124347898Y-98905300D01*
X117987874Y-105265325D01*
X117937765Y-105231843D01*
X117690000Y-105182560D01*
X115990000Y-105182560D01*
X115742235Y-105231843D01*
X115532191Y-105372191D01*
X115391843Y-105582235D01*
X115342560Y-105830000D01*
X115342560Y-107240000D01*
X113784098Y-107240000D01*
X113787713Y-107239281D01*
X114430071Y-106810071D01*
X114859281Y-106167713D01*
X115010000Y-105410000D01*
X114859281Y-104652287D01*
X114430071Y-104009929D01*
X113787713Y-103580719D01*
X113030000Y-103430000D01*
X112272287Y-103580719D01*
X111629929Y-104009929D01*
X111200719Y-104652287D01*
X111200000Y-104655902D01*
X111200000Y-83304098D01*
X111200719Y-83307713D01*
X111629929Y-83950071D01*
X112272287Y-84379281D01*
X113030000Y-84530000D01*
X113787713Y-84379281D01*
X114430071Y-83950071D01*
X114859281Y-83307713D01*
X115010000Y-82550000D01*
X114859281Y-81792287D01*
X114430071Y-81149929D01*
X113787713Y-80720719D01*
X113784098Y-80720000D01*
X142755902Y-80720000D01*
X142752287Y-80720719D01*
X142752287Y-80720719D01*
G37*
X142752287Y-80720719D02*
X142109929Y-81149929D01*
X141680719Y-81792287D01*
X141530000Y-82550000D01*
X141680719Y-83307713D01*
X142109929Y-83950071D01*
X142752287Y-84379281D01*
X143510000Y-84530000D01*
X144267713Y-84379281D01*
X144910071Y-83950071D01*
X145339281Y-83307713D01*
X145340001Y-83304094D01*
X145340000Y-104655902D01*
X145339281Y-104652287D01*
X144910071Y-104009929D01*
X144267713Y-103580719D01*
X143510000Y-103430000D01*
X142752287Y-103580719D01*
X142109929Y-104009929D01*
X141680719Y-104652287D01*
X141530000Y-105410000D01*
X141680719Y-106167713D01*
X142109929Y-106810071D01*
X142752287Y-107239281D01*
X142755902Y-107240000D01*
X141046101Y-107240000D01*
X141141486Y-107036892D01*
X141020819Y-106807000D01*
X139827000Y-106807000D01*
X139827000Y-106827000D01*
X139573000Y-106827000D01*
X139573000Y-106807000D01*
X139553000Y-106807000D01*
X139553000Y-106553000D01*
X139573000Y-106553000D01*
X139573000Y-105359845D01*
X139827000Y-105359845D01*
X139827000Y-106553000D01*
X141020819Y-106553000D01*
X141141486Y-106323108D01*
X140895183Y-105798642D01*
X140466924Y-105408355D01*
X140056890Y-105238524D01*
X139827000Y-105359845D01*
X139573000Y-105359845D01*
X139343110Y-105238524D01*
X138933076Y-105408355D01*
X138504817Y-105798642D01*
X138443843Y-105928478D01*
X138230625Y-105609375D01*
X137739418Y-105281161D01*
X137306256Y-105195000D01*
X137013744Y-105195000D01*
X136580582Y-105281161D01*
X136089375Y-105609375D01*
X135890000Y-105907761D01*
X135690625Y-105609375D01*
X135199418Y-105281161D01*
X134766256Y-105195000D01*
X134473744Y-105195000D01*
X134040582Y-105281161D01*
X133549375Y-105609375D01*
X133350000Y-105907761D01*
X133150625Y-105609375D01*
X132659418Y-105281161D01*
X132226256Y-105195000D01*
X131933744Y-105195000D01*
X131500582Y-105281161D01*
X131009375Y-105609375D01*
X130810000Y-105907761D01*
X130610625Y-105609375D01*
X130119418Y-105281161D01*
X129686256Y-105195000D01*
X129393744Y-105195000D01*
X129153642Y-105242759D01*
X129864188Y-104532214D01*
X129950301Y-104618327D01*
X130183690Y-104715000D01*
X130524250Y-104715000D01*
X130683000Y-104556250D01*
X130683000Y-103797000D01*
X130663000Y-103797000D01*
X130663000Y-103694600D01*
X130957000Y-103694600D01*
X130957000Y-103797000D01*
X130937000Y-103797000D01*
X130937000Y-104556250D01*
X131095750Y-104715000D01*
X131436310Y-104715000D01*
X131669699Y-104618327D01*
X131848327Y-104439698D01*
X131945000Y-104206309D01*
X131945000Y-103955750D01*
X131786252Y-103797002D01*
X131945000Y-103797002D01*
X131945000Y-103694600D01*
X132215000Y-103694600D01*
X132215000Y-103797002D01*
X132373748Y-103797002D01*
X132215000Y-103955750D01*
X132215000Y-104206309D01*
X132311673Y-104439698D01*
X132490301Y-104618327D01*
X132723690Y-104715000D01*
X133064250Y-104715000D01*
X133223000Y-104556250D01*
X133223000Y-103797000D01*
X133203000Y-103797000D01*
X133203000Y-103694600D01*
X133497000Y-103694600D01*
X133497000Y-103797000D01*
X133477000Y-103797000D01*
X133477000Y-104556250D01*
X133635750Y-104715000D01*
X133976310Y-104715000D01*
X134209699Y-104618327D01*
X134388327Y-104439698D01*
X134485000Y-104206309D01*
X134485000Y-103955750D01*
X134326252Y-103797002D01*
X134485000Y-103797002D01*
X134485000Y-103694600D01*
X134742560Y-103694600D01*
X134742560Y-104080000D01*
X134791843Y-104327765D01*
X134932191Y-104537809D01*
X135142235Y-104678157D01*
X135390000Y-104727440D01*
X136390000Y-104727440D01*
X136637765Y-104678157D01*
X136847809Y-104537809D01*
X136988157Y-104327765D01*
X137037440Y-104080000D01*
X137037440Y-103410000D01*
X136988157Y-103162235D01*
X136847809Y-102952191D01*
X136724802Y-102870000D01*
X136847809Y-102787809D01*
X136988157Y-102577765D01*
X137037440Y-102330000D01*
X137037440Y-101660000D01*
X136988157Y-101412235D01*
X136847809Y-101202191D01*
X136637765Y-101061843D01*
X136390000Y-101012560D01*
X135390000Y-101012560D01*
X135142235Y-101061843D01*
X134932191Y-101202191D01*
X134910269Y-101235000D01*
X134329731Y-101235000D01*
X134307809Y-101202191D01*
X134097765Y-101061843D01*
X134069496Y-101056220D01*
X134065904Y-101038162D01*
X133978684Y-100907629D01*
X133914581Y-100811692D01*
X134007765Y-100793157D01*
X134147058Y-100700083D01*
X134180302Y-100733327D01*
X134413691Y-100830000D01*
X134664250Y-100830000D01*
X134823000Y-100671250D01*
X134823000Y-99822000D01*
X135077000Y-99822000D01*
X135077000Y-100671250D01*
X135235750Y-100830000D01*
X135486309Y-100830000D01*
X135719698Y-100733327D01*
X135898327Y-100554699D01*
X135995000Y-100321310D01*
X135995000Y-99980750D01*
X135836250Y-99822000D01*
X135077000Y-99822000D01*
X134823000Y-99822000D01*
X134803000Y-99822000D01*
X134803000Y-99568000D01*
X134823000Y-99568000D01*
X134823000Y-98718750D01*
X135077000Y-98718750D01*
X135077000Y-99568000D01*
X135836250Y-99568000D01*
X135995000Y-99409250D01*
X135995000Y-99068690D01*
X135898327Y-98835301D01*
X135719698Y-98656673D01*
X135486309Y-98560000D01*
X135235750Y-98560000D01*
X135077000Y-98718750D01*
X134823000Y-98718750D01*
X134664250Y-98560000D01*
X134413691Y-98560000D01*
X134180302Y-98656673D01*
X134147058Y-98689917D01*
X134080248Y-98645275D01*
X134065904Y-98573163D01*
X133991125Y-98461249D01*
X134030073Y-98453502D01*
X134033690Y-98455000D01*
X134113750Y-98455000D01*
X134136397Y-98432353D01*
X134207765Y-98418157D01*
X134389020Y-98297045D01*
X134450301Y-98358327D01*
X134636847Y-98435597D01*
X134656250Y-98455000D01*
X134763750Y-98455000D01*
X134783153Y-98435597D01*
X134969699Y-98358327D01*
X135147500Y-98180525D01*
X135147500Y-98296250D01*
X135306250Y-98455000D01*
X135386310Y-98455000D01*
X135619699Y-98358327D01*
X135798327Y-98179698D01*
X135895000Y-97946309D01*
X135895000Y-97230750D01*
X135736250Y-97072000D01*
X135147500Y-97072000D01*
X135147500Y-97133250D01*
X135086250Y-97072000D01*
X134888000Y-97072000D01*
X134888000Y-96818000D01*
X135086250Y-96818000D01*
X135147500Y-96756750D01*
X135147500Y-96818000D01*
X135736250Y-96818000D01*
X135895000Y-96659250D01*
X135895000Y-95943691D01*
X135798327Y-95710302D01*
X135619699Y-95531673D01*
X135386310Y-95435000D01*
X135306250Y-95435000D01*
X135147500Y-95593750D01*
X135147500Y-95709475D01*
X134969699Y-95531673D01*
X134783153Y-95454403D01*
X134763750Y-95435000D01*
X134656250Y-95435000D01*
X134636847Y-95454403D01*
X134512002Y-95506115D01*
X134512002Y-95435000D01*
X134442109Y-95435000D01*
X134282929Y-95196771D01*
X134031537Y-95028796D01*
X133809852Y-94984700D01*
X133735000Y-94969811D01*
X133660148Y-94984700D01*
X133159852Y-94984700D01*
X133085000Y-94969811D01*
X133010148Y-94984700D01*
X132788463Y-95028796D01*
X132537071Y-95196771D01*
X132386203Y-95422560D01*
X132210000Y-95422560D01*
X132110000Y-95442451D01*
X132010000Y-95422560D01*
X131833797Y-95422560D01*
X131740100Y-95282333D01*
X131740100Y-95246726D01*
X131582531Y-94866320D01*
X131291380Y-94575169D01*
X130910974Y-94417600D01*
X130499226Y-94417600D01*
X130118820Y-94575169D01*
X130064700Y-94629289D01*
X130003080Y-94567669D01*
X129745447Y-94460954D01*
X132501102Y-91705300D01*
X133010148Y-91705300D01*
X133085000Y-91720189D01*
X133381537Y-91661204D01*
X133632929Y-91493229D01*
X133735000Y-91340469D01*
X133791574Y-91425136D01*
X133837072Y-91493229D01*
X133900528Y-91535629D01*
X136296843Y-93931945D01*
X136277300Y-93979126D01*
X136277300Y-94390874D01*
X136434869Y-94771280D01*
X136726020Y-95062431D01*
X137106426Y-95220000D01*
X137518174Y-95220000D01*
X137898580Y-95062431D01*
X138016011Y-94945000D01*
X138054899Y-94945000D01*
X138209369Y-95099470D01*
X138251771Y-95162929D01*
X138377182Y-95246726D01*
X138503162Y-95330904D01*
X138521220Y-95334496D01*
X138526843Y-95362765D01*
X138667191Y-95572809D01*
X138700001Y-95594732D01*
X138700001Y-96175268D01*
X138667191Y-96197191D01*
X138526843Y-96407235D01*
X138477560Y-96655000D01*
X138477560Y-97655000D01*
X138526843Y-97902765D01*
X138667191Y-98112809D01*
X138877235Y-98253157D01*
X139125000Y-98302440D01*
X139795000Y-98302440D01*
X140042765Y-98253157D01*
X140252809Y-98112809D01*
X140335000Y-97989802D01*
X140417191Y-98112809D01*
X140627235Y-98253157D01*
X140875000Y-98302440D01*
X141545000Y-98302440D01*
X141792765Y-98253157D01*
X142002809Y-98112809D01*
X142143157Y-97902765D01*
X142148780Y-97874496D01*
X142166837Y-97870904D01*
X142362745Y-97740002D01*
X142375000Y-97742440D01*
X143375000Y-97742440D01*
X143570333Y-97703586D01*
X143791026Y-97795000D01*
X144202774Y-97795000D01*
X144583180Y-97637431D01*
X144874331Y-97346280D01*
X145031900Y-96965874D01*
X145031900Y-96554126D01*
X144874331Y-96173720D01*
X144583180Y-95882569D01*
X144202774Y-95725000D01*
X143893025Y-95725000D01*
X143913327Y-95704698D01*
X144010000Y-95471309D01*
X144010000Y-95295750D01*
X143851250Y-95137000D01*
X143002000Y-95137000D01*
X143002000Y-95157000D01*
X142748000Y-95157000D01*
X142748000Y-95137000D01*
X142728000Y-95137000D01*
X142728000Y-94883000D01*
X142748000Y-94883000D01*
X142748000Y-94198750D01*
X143002000Y-94198750D01*
X143002000Y-94883000D01*
X143851250Y-94883000D01*
X144010000Y-94724250D01*
X144010000Y-94548691D01*
X143913327Y-94315302D01*
X143734699Y-94136673D01*
X143501310Y-94040000D01*
X143160750Y-94040000D01*
X143002000Y-94198750D01*
X142748000Y-94198750D01*
X142589250Y-94040000D01*
X142248690Y-94040000D01*
X142180000Y-94068452D01*
X142180000Y-93988690D01*
X142083327Y-93755301D01*
X141904698Y-93576673D01*
X141671309Y-93480000D01*
X141420750Y-93480000D01*
X141262000Y-93638750D01*
X141262000Y-94488000D01*
X141282000Y-94488000D01*
X141282000Y-94742000D01*
X141262000Y-94742000D01*
X141262000Y-95591250D01*
X141420750Y-95750000D01*
X141671309Y-95750000D01*
X141828473Y-95684901D01*
X141836673Y-95704698D01*
X142015301Y-95883327D01*
X142032216Y-95890333D01*
X141917191Y-95967191D01*
X141883070Y-96018256D01*
X141753163Y-96044096D01*
X141747547Y-96047849D01*
X141545000Y-96007560D01*
X140875000Y-96007560D01*
X140627235Y-96056843D01*
X140417191Y-96197191D01*
X140335000Y-96320198D01*
X140252809Y-96197191D01*
X140220000Y-96175269D01*
X140220000Y-95783088D01*
X140250904Y-95736837D01*
X140265248Y-95664725D01*
X140332058Y-95620083D01*
X140365302Y-95653327D01*
X140598691Y-95750000D01*
X140849250Y-95750000D01*
X141008000Y-95591250D01*
X141008000Y-94742000D01*
X140988000Y-94742000D01*
X140988000Y-94488000D01*
X141008000Y-94488000D01*
X141008000Y-93638750D01*
X140849250Y-93480000D01*
X140598691Y-93480000D01*
X140365302Y-93576673D01*
X140332058Y-93609917D01*
X140192765Y-93516843D01*
X139945000Y-93467560D01*
X139125000Y-93467560D01*
X138877235Y-93516843D01*
X138807465Y-93563462D01*
X138666237Y-93469096D01*
X138444552Y-93425000D01*
X138444547Y-93425000D01*
X138369700Y-93410112D01*
X138294853Y-93425000D01*
X138016011Y-93425000D01*
X137898580Y-93307569D01*
X137767973Y-93253470D01*
X135642578Y-91128077D01*
X135717809Y-91077809D01*
X135858157Y-90867765D01*
X135907440Y-90620000D01*
X135907440Y-90505000D01*
X136780899Y-90505000D01*
X137531900Y-91256002D01*
X137531900Y-91422074D01*
X137689469Y-91802480D01*
X137980620Y-92093631D01*
X138361026Y-92251200D01*
X138477560Y-92251200D01*
X138477560Y-92575000D01*
X138526843Y-92822765D01*
X138667191Y-93032809D01*
X138877235Y-93173157D01*
X139125000Y-93222440D01*
X139945000Y-93222440D01*
X140192765Y-93173157D01*
X140332058Y-93080083D01*
X140365302Y-93113327D01*
X140598691Y-93210000D01*
X140849250Y-93210000D01*
X141008000Y-93051250D01*
X141008000Y-92202000D01*
X140988000Y-92202000D01*
X140988000Y-91948000D01*
X141008000Y-91948000D01*
X141008000Y-91098750D01*
X140849250Y-90940000D01*
X140598691Y-90940000D01*
X140365302Y-91036673D01*
X140332058Y-91069917D01*
X140265248Y-91025275D01*
X140250904Y-90953163D01*
X140082929Y-90701771D01*
X139994584Y-90642741D01*
X140042765Y-90633157D01*
X140252809Y-90492809D01*
X140335000Y-90369802D01*
X140417191Y-90492809D01*
X140627235Y-90633157D01*
X140875000Y-90682440D01*
X141545000Y-90682440D01*
X141747547Y-90642151D01*
X141753163Y-90645904D01*
X141883070Y-90671744D01*
X141917191Y-90722809D01*
X142032216Y-90799667D01*
X142015301Y-90806673D01*
X141836673Y-90985302D01*
X141828473Y-91005099D01*
X141671309Y-90940000D01*
X141420750Y-90940000D01*
X141262000Y-91098750D01*
X141262000Y-91948000D01*
X141282000Y-91948000D01*
X141282000Y-92202000D01*
X141262000Y-92202000D01*
X141262000Y-93051250D01*
X141420750Y-93210000D01*
X141671309Y-93210000D01*
X141904698Y-93113327D01*
X142083327Y-92934699D01*
X142180000Y-92701310D01*
X142180000Y-92621548D01*
X142248690Y-92650000D01*
X142589250Y-92650000D01*
X142748000Y-92491250D01*
X142748000Y-91807000D01*
X143002000Y-91807000D01*
X143002000Y-92491250D01*
X143160750Y-92650000D01*
X143501310Y-92650000D01*
X143734699Y-92553327D01*
X143913327Y-92374698D01*
X144010000Y-92141309D01*
X144010000Y-91965750D01*
X143851250Y-91807000D01*
X143002000Y-91807000D01*
X142748000Y-91807000D01*
X142728000Y-91807000D01*
X142728000Y-91553000D01*
X142748000Y-91553000D01*
X142748000Y-91533000D01*
X143002000Y-91533000D01*
X143002000Y-91553000D01*
X143851250Y-91553000D01*
X144010000Y-91394250D01*
X144010000Y-91218691D01*
X143913327Y-90985302D01*
X143734699Y-90806673D01*
X143717784Y-90799667D01*
X143832809Y-90722809D01*
X143866930Y-90671744D01*
X143996837Y-90645904D01*
X144248229Y-90477929D01*
X144282603Y-90426485D01*
X144565680Y-90309231D01*
X144856831Y-90018080D01*
X145014400Y-89637674D01*
X145014400Y-89225926D01*
X144856831Y-88845520D01*
X144565680Y-88554369D01*
X144185274Y-88396800D01*
X143773526Y-88396800D01*
X143393120Y-88554369D01*
X143101969Y-88845520D01*
X143059703Y-88947560D01*
X142375000Y-88947560D01*
X142362745Y-88949998D01*
X142166837Y-88819096D01*
X142148780Y-88815504D01*
X142143157Y-88787235D01*
X142002809Y-88577191D01*
X141792765Y-88436843D01*
X141545000Y-88387560D01*
X140875000Y-88387560D01*
X140627235Y-88436843D01*
X140417191Y-88577191D01*
X140335000Y-88700198D01*
X140252809Y-88577191D01*
X140042765Y-88436843D01*
X139795000Y-88387560D01*
X139125000Y-88387560D01*
X138877235Y-88436843D01*
X138667191Y-88577191D01*
X138526843Y-88787235D01*
X138477560Y-89035000D01*
X138477560Y-89143333D01*
X138413996Y-89238463D01*
X138355011Y-89535000D01*
X138369901Y-89609856D01*
X138369901Y-89944399D01*
X137686031Y-89260530D01*
X137643629Y-89197071D01*
X137392237Y-89029096D01*
X137170552Y-88985000D01*
X137170547Y-88985000D01*
X137095700Y-88970112D01*
X137020853Y-88985000D01*
X135907440Y-88985000D01*
X135907440Y-88870000D01*
X135858157Y-88622235D01*
X135717809Y-88412191D01*
X135507765Y-88271843D01*
X135260000Y-88222560D01*
X134810000Y-88222560D01*
X134710000Y-88242451D01*
X134610000Y-88222560D01*
X134160000Y-88222560D01*
X134089927Y-88236498D01*
X134086310Y-88235000D01*
X134006250Y-88235000D01*
X133983603Y-88257647D01*
X133912235Y-88271843D01*
X133862002Y-88305408D01*
X133862002Y-88235000D01*
X133835960Y-88235000D01*
X133815074Y-88130000D01*
X133864250Y-88130000D01*
X134023000Y-87971250D01*
X134023000Y-87122000D01*
X134277000Y-87122000D01*
X134277000Y-87971250D01*
X134435750Y-88130000D01*
X134686309Y-88130000D01*
X134919698Y-88033327D01*
X135098327Y-87854699D01*
X135195000Y-87621310D01*
X135195000Y-87280750D01*
X135036250Y-87122000D01*
X134277000Y-87122000D01*
X134023000Y-87122000D01*
X134003000Y-87122000D01*
X134003000Y-86868000D01*
X134023000Y-86868000D01*
X134023000Y-86848000D01*
X134277000Y-86848000D01*
X134277000Y-86868000D01*
X135036250Y-86868000D01*
X135195000Y-86709250D01*
X135195000Y-86368690D01*
X135098327Y-86135301D01*
X135000097Y-86037072D01*
X135083157Y-85912765D01*
X135132440Y-85665000D01*
X135132440Y-84995000D01*
X135089941Y-84781343D01*
X135534600Y-85226002D01*
X135534600Y-85392074D01*
X135692169Y-85772480D01*
X135983320Y-86063631D01*
X136363726Y-86221200D01*
X136775474Y-86221200D01*
X137155880Y-86063631D01*
X137447031Y-85772480D01*
X137604600Y-85392074D01*
X137604600Y-84980326D01*
X137447031Y-84599920D01*
X137155880Y-84308769D01*
X136775474Y-84151200D01*
X136609402Y-84151200D01*
X135553731Y-83095530D01*
X135511329Y-83032071D01*
X135259937Y-82864096D01*
X135038252Y-82820000D01*
X135038247Y-82820000D01*
X134963400Y-82805112D01*
X134955794Y-82806625D01*
X134942809Y-82787191D01*
X134732765Y-82646843D01*
X134704496Y-82641220D01*
X134700904Y-82623163D01*
X134570002Y-82427255D01*
X134572440Y-82415000D01*
X134572440Y-81415000D01*
X134523157Y-81167235D01*
X134382809Y-80957191D01*
X134172765Y-80816843D01*
X133925000Y-80767560D01*
X133255000Y-80767560D01*
X133007235Y-80816843D01*
X132797191Y-80957191D01*
X132720333Y-81072216D01*
X132713327Y-81055301D01*
X132534698Y-80876673D01*
X132301309Y-80780000D01*
X132125750Y-80780000D01*
X131967000Y-80938750D01*
X131967000Y-81788000D01*
X131987000Y-81788000D01*
X131987000Y-82042000D01*
X131967000Y-82042000D01*
X131967000Y-82062000D01*
X131713000Y-82062000D01*
X131713000Y-82042000D01*
X131028750Y-82042000D01*
X130870000Y-82200750D01*
X130870000Y-82541310D01*
X130898452Y-82610000D01*
X130818690Y-82610000D01*
X130585301Y-82706673D01*
X130406673Y-82885302D01*
X130310000Y-83118691D01*
X130310000Y-83369250D01*
X130468750Y-83528000D01*
X131318000Y-83528000D01*
X131318000Y-83508000D01*
X131572000Y-83508000D01*
X131572000Y-83528000D01*
X132421250Y-83528000D01*
X132580000Y-83369250D01*
X132580000Y-83118691D01*
X132514901Y-82961527D01*
X132534698Y-82953327D01*
X132713327Y-82774699D01*
X132720333Y-82757784D01*
X132797191Y-82872809D01*
X132848256Y-82906930D01*
X132869387Y-83013157D01*
X132874097Y-83036837D01*
X132877849Y-83042452D01*
X132837560Y-83245000D01*
X132837560Y-83915000D01*
X132886843Y-84162765D01*
X133027191Y-84372809D01*
X133150198Y-84455000D01*
X133027191Y-84537191D01*
X133005269Y-84570000D01*
X132613088Y-84570000D01*
X132566837Y-84539096D01*
X132494725Y-84524752D01*
X132450083Y-84457942D01*
X132483327Y-84424698D01*
X132580000Y-84191309D01*
X132580000Y-83940750D01*
X132421250Y-83782000D01*
X131572000Y-83782000D01*
X131572000Y-83802000D01*
X131318000Y-83802000D01*
X131318000Y-83782000D01*
X130468750Y-83782000D01*
X130310000Y-83940750D01*
X130310000Y-84191309D01*
X130406673Y-84424698D01*
X130439917Y-84457942D01*
X130346843Y-84597235D01*
X130297560Y-84845000D01*
X130297560Y-85665000D01*
X130346843Y-85912765D01*
X130487191Y-86122809D01*
X130685001Y-86254982D01*
X130685000Y-86757089D01*
X130669495Y-86772594D01*
X129925655Y-86028754D01*
X130003157Y-85912765D01*
X130052440Y-85665000D01*
X130052440Y-84845000D01*
X130003157Y-84597235D01*
X129910083Y-84457942D01*
X129943327Y-84424698D01*
X130040000Y-84191309D01*
X130040000Y-83940750D01*
X129881250Y-83782000D01*
X129032000Y-83782000D01*
X129032000Y-83802000D01*
X128778000Y-83802000D01*
X128778000Y-83782000D01*
X128758000Y-83782000D01*
X128758000Y-83528000D01*
X128778000Y-83528000D01*
X128778000Y-83508000D01*
X129032000Y-83508000D01*
X129032000Y-83528000D01*
X129881250Y-83528000D01*
X130040000Y-83369250D01*
X130040000Y-83118691D01*
X129943327Y-82885302D01*
X129764699Y-82706673D01*
X129531310Y-82610000D01*
X129451548Y-82610000D01*
X129480000Y-82541310D01*
X129480000Y-82200750D01*
X129321250Y-82042000D01*
X128637000Y-82042000D01*
X128637000Y-82062000D01*
X128383000Y-82062000D01*
X128383000Y-82042000D01*
X128363000Y-82042000D01*
X128363000Y-81788000D01*
X128383000Y-81788000D01*
X128383000Y-80938750D01*
X128637000Y-80938750D01*
X128637000Y-81788000D01*
X129321250Y-81788000D01*
X129480000Y-81629250D01*
X129480000Y-81288690D01*
X130870000Y-81288690D01*
X130870000Y-81629250D01*
X131028750Y-81788000D01*
X131713000Y-81788000D01*
X131713000Y-80938750D01*
X131554250Y-80780000D01*
X131378691Y-80780000D01*
X131145302Y-80876673D01*
X130966673Y-81055301D01*
X130870000Y-81288690D01*
X129480000Y-81288690D01*
X129383327Y-81055301D01*
X129204698Y-80876673D01*
X128971309Y-80780000D01*
X128795750Y-80780000D01*
X128637000Y-80938750D01*
X128383000Y-80938750D01*
X128224250Y-80780000D01*
X128048691Y-80780000D01*
X127815302Y-80876673D01*
X127636673Y-81055301D01*
X127629667Y-81072216D01*
X127552809Y-80957191D01*
X127342765Y-80816843D01*
X127095000Y-80767560D01*
X126425000Y-80767560D01*
X126177235Y-80816843D01*
X125967191Y-80957191D01*
X125826843Y-81167235D01*
X125777560Y-81415000D01*
X125777560Y-82415000D01*
X125779998Y-82427255D01*
X125649096Y-82623163D01*
X125645504Y-82641220D01*
X125617235Y-82646843D01*
X125407191Y-82787191D01*
X125266843Y-82997235D01*
X125217560Y-83245000D01*
X125217560Y-83915000D01*
X125266843Y-84162765D01*
X125407191Y-84372809D01*
X125530198Y-84455000D01*
X125407191Y-84537191D01*
X125266843Y-84747235D01*
X125217560Y-84995000D01*
X125217560Y-85665000D01*
X125231683Y-85736000D01*
X119610748Y-85736000D01*
X119535900Y-85721112D01*
X119461052Y-85736000D01*
X119461048Y-85736000D01*
X119239363Y-85780096D01*
X118987971Y-85948071D01*
X118945571Y-86011527D01*
X117161430Y-87795669D01*
X117097971Y-87838071D01*
X116929996Y-88089464D01*
X116885900Y-88311149D01*
X116885900Y-88311153D01*
X116871012Y-88386000D01*
X116885900Y-88460848D01*
X116885900Y-88573289D01*
X116768469Y-88690720D01*
X116610900Y-89071126D01*
X116610900Y-89482874D01*
X116768469Y-89863280D01*
X117059620Y-90154431D01*
X117440026Y-90312000D01*
X117851774Y-90312000D01*
X118232180Y-90154431D01*
X118523331Y-89863280D01*
X118680900Y-89482874D01*
X118680900Y-89071126D01*
X118523331Y-88690720D01*
X118469656Y-88637045D01*
X119002560Y-88104141D01*
X119002560Y-91345000D01*
X119050929Y-91588169D01*
X118416099Y-92223000D01*
X118250026Y-92223000D01*
X117869620Y-92380569D01*
X117578469Y-92671720D01*
X117420900Y-93052126D01*
X117420900Y-93463874D01*
X117578469Y-93844280D01*
X117869620Y-94135431D01*
X118250026Y-94293000D01*
X118661774Y-94293000D01*
X119042180Y-94135431D01*
X119333331Y-93844280D01*
X119490900Y-93463874D01*
X119490900Y-93297801D01*
X120312902Y-92475800D01*
X124144000Y-92475800D01*
X124144000Y-92662974D01*
X124301569Y-93043380D01*
X124592720Y-93334531D01*
X124973126Y-93492100D01*
X125384874Y-93492100D01*
X125765280Y-93334531D01*
X125882711Y-93217100D01*
X128839699Y-93217100D01*
X127400528Y-94656271D01*
X127337072Y-94698671D01*
X127169096Y-94950063D01*
X127162291Y-94984274D01*
X127160148Y-94984700D01*
X123310800Y-94984700D01*
X123310800Y-94944826D01*
X123153231Y-94564420D01*
X122862080Y-94273269D01*
X122481674Y-94115700D01*
X122069926Y-94115700D01*
X121689520Y-94273269D01*
X121398369Y-94564420D01*
X121343221Y-94697560D01*
X119650000Y-94697560D01*
X119402235Y-94746843D01*
X119192191Y-94887191D01*
X119051843Y-95097235D01*
X119002560Y-95345000D01*
X119002560Y-99845000D01*
X119051843Y-100092765D01*
X119192191Y-100302809D01*
X119402235Y-100443157D01*
X119650000Y-100492440D01*
X121650000Y-100492440D01*
X121897765Y-100443157D01*
X122107809Y-100302809D01*
X122248157Y-100092765D01*
X122297440Y-99845000D01*
X122297440Y-98874805D01*
X122450748Y-98905300D01*
X122450752Y-98905300D01*
X122525600Y-98920188D01*
X122600448Y-98905300D01*
X124347898Y-98905300D01*
X117987874Y-105265325D01*
X117937765Y-105231843D01*
X117690000Y-105182560D01*
X115990000Y-105182560D01*
X115742235Y-105231843D01*
X115532191Y-105372191D01*
X115391843Y-105582235D01*
X115342560Y-105830000D01*
X115342560Y-107240000D01*
X113784098Y-107240000D01*
X113787713Y-107239281D01*
X114430071Y-106810071D01*
X114859281Y-106167713D01*
X115010000Y-105410000D01*
X114859281Y-104652287D01*
X114430071Y-104009929D01*
X113787713Y-103580719D01*
X113030000Y-103430000D01*
X112272287Y-103580719D01*
X111629929Y-104009929D01*
X111200719Y-104652287D01*
X111200000Y-104655902D01*
X111200000Y-83304098D01*
X111200719Y-83307713D01*
X111629929Y-83950071D01*
X112272287Y-84379281D01*
X113030000Y-84530000D01*
X113787713Y-84379281D01*
X114430071Y-83950071D01*
X114859281Y-83307713D01*
X115010000Y-82550000D01*
X114859281Y-81792287D01*
X114430071Y-81149929D01*
X113787713Y-80720719D01*
X113784098Y-80720000D01*
X142755902Y-80720000D01*
X142752287Y-80720719D01*
G36*
X129075001Y-99842000D02*
X128943000Y-99842000D01*
X128943000Y-99822000D01*
X128923000Y-99822000D01*
X128923000Y-99568000D01*
X128943000Y-99568000D01*
X128943000Y-99548000D01*
X129075000Y-99548000D01*
X129075001Y-99842000D01*
X129075001Y-99842000D01*
G37*
X129075001Y-99842000D02*
X128943000Y-99842000D01*
X128943000Y-99822000D01*
X128923000Y-99822000D01*
X128923000Y-99568000D01*
X128943000Y-99568000D01*
X128943000Y-99548000D01*
X129075000Y-99548000D01*
X129075001Y-99842000D01*
M02*
