G04 #@! TF.GenerationSoftware,KiCad,Pcbnew,(2018-02-15 revision 29b28de31)-makepkg*
G04 #@! TF.CreationDate,2019-01-06T21:13:36+03:00*
G04 #@! TF.ProjectId,CS5464_Breakout,4353353436345F427265616B6F75742E,rev?*
G04 #@! TF.SameCoordinates,Original*
G04 #@! TF.FileFunction,Legend,Bot*
G04 #@! TF.FilePolarity,Positive*
%FSLAX46Y46*%
G04 Gerber Fmt 4.6, Leading zero omitted, Abs format (unit mm)*
G04 Created by KiCad (PCBNEW (2018-02-15 revision 29b28de31)-makepkg) date 01/06/19 21:13:36*
%MOMM*%
%LPD*%
G01*
G04 APERTURE LIST*
%ADD10C,0.250000*%
%ADD11C,0.120000*%
%ADD12C,0.010000*%
%ADD13C,0.200000*%
G04 APERTURE END LIST*
D10*
X125702380Y-89333333D02*
X124702380Y-89333333D01*
X125083333Y-89333333D02*
X125035714Y-89428571D01*
X125035714Y-89619047D01*
X125083333Y-89714285D01*
X125130952Y-89761904D01*
X125226190Y-89809523D01*
X125511904Y-89809523D01*
X125607142Y-89761904D01*
X125654761Y-89714285D01*
X125702380Y-89619047D01*
X125702380Y-89428571D01*
X125654761Y-89333333D01*
X125035714Y-90142857D02*
X125702380Y-90380952D01*
X125035714Y-90619047D02*
X125702380Y-90380952D01*
X125940476Y-90285714D01*
X125988095Y-90238095D01*
X126035714Y-90142857D01*
X124702380Y-91619047D02*
X124702380Y-92190476D01*
X125702380Y-91904761D02*
X124702380Y-91904761D01*
X125702380Y-92523809D02*
X125035714Y-92523809D01*
X124702380Y-92523809D02*
X124750000Y-92476190D01*
X124797619Y-92523809D01*
X124750000Y-92571428D01*
X124702380Y-92523809D01*
X124797619Y-92523809D01*
X125654761Y-92952380D02*
X125702380Y-93047619D01*
X125702380Y-93238095D01*
X125654761Y-93333333D01*
X125559523Y-93380952D01*
X125511904Y-93380952D01*
X125416666Y-93333333D01*
X125369047Y-93238095D01*
X125369047Y-93095238D01*
X125321428Y-93000000D01*
X125226190Y-92952380D01*
X125178571Y-92952380D01*
X125083333Y-93000000D01*
X125035714Y-93095238D01*
X125035714Y-93238095D01*
X125083333Y-93333333D01*
X125702380Y-93809523D02*
X124702380Y-93809523D01*
X125702380Y-94238095D02*
X125178571Y-94238095D01*
X125083333Y-94190476D01*
X125035714Y-94095238D01*
X125035714Y-93952380D01*
X125083333Y-93857142D01*
X125130952Y-93809523D01*
X125702380Y-95142857D02*
X125178571Y-95142857D01*
X125083333Y-95095238D01*
X125035714Y-95000000D01*
X125035714Y-94809523D01*
X125083333Y-94714285D01*
X125654761Y-95142857D02*
X125702380Y-95047619D01*
X125702380Y-94809523D01*
X125654761Y-94714285D01*
X125559523Y-94666666D01*
X125464285Y-94666666D01*
X125369047Y-94714285D01*
X125321428Y-94809523D01*
X125321428Y-95047619D01*
X125273809Y-95142857D01*
X125702380Y-95619047D02*
X125035714Y-95619047D01*
X125130952Y-95619047D02*
X125083333Y-95666666D01*
X125035714Y-95761904D01*
X125035714Y-95904761D01*
X125083333Y-96000000D01*
X125178571Y-96047619D01*
X125702380Y-96047619D01*
X125178571Y-96047619D02*
X125083333Y-96095238D01*
X125035714Y-96190476D01*
X125035714Y-96333333D01*
X125083333Y-96428571D01*
X125178571Y-96476190D01*
X125702380Y-96476190D01*
X125702380Y-97714285D02*
X124702380Y-97714285D01*
X124702380Y-97952380D01*
X124750000Y-98095238D01*
X124845238Y-98190476D01*
X124940476Y-98238095D01*
X125130952Y-98285714D01*
X125273809Y-98285714D01*
X125464285Y-98238095D01*
X125559523Y-98190476D01*
X125654761Y-98095238D01*
X125702380Y-97952380D01*
X125702380Y-97714285D01*
X125702380Y-98714285D02*
X124702380Y-98714285D01*
X125702380Y-99142857D02*
X125178571Y-99142857D01*
X125083333Y-99095238D01*
X125035714Y-99000000D01*
X125035714Y-98857142D01*
X125083333Y-98761904D01*
X125130952Y-98714285D01*
X125702380Y-100047619D02*
X125178571Y-100047619D01*
X125083333Y-100000000D01*
X125035714Y-99904761D01*
X125035714Y-99714285D01*
X125083333Y-99619047D01*
X125654761Y-100047619D02*
X125702380Y-99952380D01*
X125702380Y-99714285D01*
X125654761Y-99619047D01*
X125559523Y-99571428D01*
X125464285Y-99571428D01*
X125369047Y-99619047D01*
X125321428Y-99714285D01*
X125321428Y-99952380D01*
X125273809Y-100047619D01*
X125702380Y-100523809D02*
X125035714Y-100523809D01*
X125226190Y-100523809D02*
X125130952Y-100571428D01*
X125083333Y-100619047D01*
X125035714Y-100714285D01*
X125035714Y-100809523D01*
X127452380Y-87452380D02*
X126452380Y-87452380D01*
X127452380Y-87880952D02*
X126928571Y-87880952D01*
X126833333Y-87833333D01*
X126785714Y-87738095D01*
X126785714Y-87595238D01*
X126833333Y-87500000D01*
X126880952Y-87452380D01*
X126785714Y-88214285D02*
X126785714Y-88595238D01*
X126452380Y-88357142D02*
X127309523Y-88357142D01*
X127404761Y-88404761D01*
X127452380Y-88500000D01*
X127452380Y-88595238D01*
X126785714Y-88785714D02*
X126785714Y-89166666D01*
X126452380Y-88928571D02*
X127309523Y-88928571D01*
X127404761Y-88976190D01*
X127452380Y-89071428D01*
X127452380Y-89166666D01*
X126785714Y-89500000D02*
X127785714Y-89500000D01*
X126833333Y-89500000D02*
X126785714Y-89595238D01*
X126785714Y-89785714D01*
X126833333Y-89880952D01*
X126880952Y-89928571D01*
X126976190Y-89976190D01*
X127261904Y-89976190D01*
X127357142Y-89928571D01*
X127404761Y-89880952D01*
X127452380Y-89785714D01*
X127452380Y-89595238D01*
X127404761Y-89500000D01*
X127357142Y-90404761D02*
X127404761Y-90452380D01*
X127452380Y-90404761D01*
X127404761Y-90357142D01*
X127357142Y-90404761D01*
X127452380Y-90404761D01*
X126833333Y-90404761D02*
X126880952Y-90452380D01*
X126928571Y-90404761D01*
X126880952Y-90357142D01*
X126833333Y-90404761D01*
X126928571Y-90404761D01*
X126404761Y-91595238D02*
X127690476Y-90738095D01*
X126404761Y-92642857D02*
X127690476Y-91785714D01*
X126785714Y-92880952D02*
X127452380Y-93071428D01*
X126976190Y-93261904D01*
X127452380Y-93452380D01*
X126785714Y-93642857D01*
X127452380Y-94023809D02*
X126452380Y-94023809D01*
X127452380Y-94452380D02*
X126928571Y-94452380D01*
X126833333Y-94404761D01*
X126785714Y-94309523D01*
X126785714Y-94166666D01*
X126833333Y-94071428D01*
X126880952Y-94023809D01*
X127452380Y-95357142D02*
X126928571Y-95357142D01*
X126833333Y-95309523D01*
X126785714Y-95214285D01*
X126785714Y-95023809D01*
X126833333Y-94928571D01*
X127404761Y-95357142D02*
X127452380Y-95261904D01*
X127452380Y-95023809D01*
X127404761Y-94928571D01*
X127309523Y-94880952D01*
X127214285Y-94880952D01*
X127119047Y-94928571D01*
X127071428Y-95023809D01*
X127071428Y-95261904D01*
X127023809Y-95357142D01*
X126785714Y-95690476D02*
X126785714Y-96071428D01*
X126452380Y-95833333D02*
X127309523Y-95833333D01*
X127404761Y-95880952D01*
X127452380Y-95976190D01*
X127452380Y-96071428D01*
X126785714Y-96404761D02*
X127452380Y-96404761D01*
X126880952Y-96404761D02*
X126833333Y-96452380D01*
X126785714Y-96547619D01*
X126785714Y-96690476D01*
X126833333Y-96785714D01*
X126928571Y-96833333D01*
X127452380Y-96833333D01*
X127452380Y-97309523D02*
X126785714Y-97309523D01*
X126452380Y-97309523D02*
X126500000Y-97261904D01*
X126547619Y-97309523D01*
X126500000Y-97357142D01*
X126452380Y-97309523D01*
X126547619Y-97309523D01*
X127404761Y-98214285D02*
X127452380Y-98119047D01*
X127452380Y-97928571D01*
X127404761Y-97833333D01*
X127357142Y-97785714D01*
X127261904Y-97738095D01*
X126976190Y-97738095D01*
X126880952Y-97785714D01*
X126833333Y-97833333D01*
X126785714Y-97928571D01*
X126785714Y-98119047D01*
X126833333Y-98214285D01*
X127452380Y-98642857D02*
X126452380Y-98642857D01*
X127071428Y-98738095D02*
X127452380Y-99023809D01*
X126785714Y-99023809D02*
X127166666Y-98642857D01*
X127357142Y-99452380D02*
X127404761Y-99499999D01*
X127452380Y-99452380D01*
X127404761Y-99404761D01*
X127357142Y-99452380D01*
X127452380Y-99452380D01*
X127404761Y-100357142D02*
X127452380Y-100261904D01*
X127452380Y-100071428D01*
X127404761Y-99976190D01*
X127357142Y-99928571D01*
X127261904Y-99880952D01*
X126976190Y-99880952D01*
X126880952Y-99928571D01*
X126833333Y-99976190D01*
X126785714Y-100071428D01*
X126785714Y-100261904D01*
X126833333Y-100357142D01*
X127452380Y-100928571D02*
X127404761Y-100833333D01*
X127357142Y-100785714D01*
X127261904Y-100738095D01*
X126976190Y-100738095D01*
X126880952Y-100785714D01*
X126833333Y-100833333D01*
X126785714Y-100928571D01*
X126785714Y-101071428D01*
X126833333Y-101166666D01*
X126880952Y-101214285D01*
X126976190Y-101261904D01*
X127261904Y-101261904D01*
X127357142Y-101214285D01*
X127404761Y-101166666D01*
X127452380Y-101071428D01*
X127452380Y-100928571D01*
X127452380Y-101690476D02*
X126785714Y-101690476D01*
X126880952Y-101690476D02*
X126833333Y-101738095D01*
X126785714Y-101833333D01*
X126785714Y-101976190D01*
X126833333Y-102071428D01*
X126928571Y-102119047D01*
X127452380Y-102119047D01*
X126928571Y-102119047D02*
X126833333Y-102166666D01*
X126785714Y-102261904D01*
X126785714Y-102404761D01*
X126833333Y-102499999D01*
X126928571Y-102547619D01*
X127452380Y-102547619D01*
X128535714Y-88333333D02*
X129202380Y-88571428D01*
X128535714Y-88809523D01*
X128202380Y-89380952D02*
X128202380Y-89476190D01*
X128250000Y-89571428D01*
X128297619Y-89619047D01*
X128392857Y-89666666D01*
X128583333Y-89714285D01*
X128821428Y-89714285D01*
X129011904Y-89666666D01*
X129107142Y-89619047D01*
X129154761Y-89571428D01*
X129202380Y-89476190D01*
X129202380Y-89380952D01*
X129154761Y-89285714D01*
X129107142Y-89238095D01*
X129011904Y-89190476D01*
X128821428Y-89142857D01*
X128583333Y-89142857D01*
X128392857Y-89190476D01*
X128297619Y-89238095D01*
X128250000Y-89285714D01*
X128202380Y-89380952D01*
X129107142Y-90142857D02*
X129154761Y-90190476D01*
X129202380Y-90142857D01*
X129154761Y-90095238D01*
X129107142Y-90142857D01*
X129202380Y-90142857D01*
X129202380Y-91142857D02*
X129202380Y-90571428D01*
X129202380Y-90857142D02*
X128202380Y-90857142D01*
X128345238Y-90761904D01*
X128440476Y-90666666D01*
X128488095Y-90571428D01*
X128202380Y-92523809D02*
X128202380Y-92619047D01*
X128250000Y-92714285D01*
X128297619Y-92761904D01*
X128392857Y-92809523D01*
X128583333Y-92857142D01*
X128821428Y-92857142D01*
X129011904Y-92809523D01*
X129107142Y-92761904D01*
X129154761Y-92714285D01*
X129202380Y-92619047D01*
X129202380Y-92523809D01*
X129154761Y-92428571D01*
X129107142Y-92380952D01*
X129011904Y-92333333D01*
X128821428Y-92285714D01*
X128583333Y-92285714D01*
X128392857Y-92333333D01*
X128297619Y-92380952D01*
X128250000Y-92428571D01*
X128202380Y-92523809D01*
X128202380Y-93714285D02*
X128202380Y-93523809D01*
X128250000Y-93428571D01*
X128297619Y-93380952D01*
X128440476Y-93285714D01*
X128630952Y-93238095D01*
X129011904Y-93238095D01*
X129107142Y-93285714D01*
X129154761Y-93333333D01*
X129202380Y-93428571D01*
X129202380Y-93619047D01*
X129154761Y-93714285D01*
X129107142Y-93761904D01*
X129011904Y-93809523D01*
X128773809Y-93809523D01*
X128678571Y-93761904D01*
X128630952Y-93714285D01*
X128583333Y-93619047D01*
X128583333Y-93428571D01*
X128630952Y-93333333D01*
X128678571Y-93285714D01*
X128773809Y-93238095D01*
X128154761Y-94952380D02*
X129440476Y-94095238D01*
X128202380Y-95476190D02*
X128202380Y-95571428D01*
X128250000Y-95666666D01*
X128297619Y-95714285D01*
X128392857Y-95761904D01*
X128583333Y-95809523D01*
X128821428Y-95809523D01*
X129011904Y-95761904D01*
X129107142Y-95714285D01*
X129154761Y-95666666D01*
X129202380Y-95571428D01*
X129202380Y-95476190D01*
X129154761Y-95380952D01*
X129107142Y-95333333D01*
X129011904Y-95285714D01*
X128821428Y-95238095D01*
X128583333Y-95238095D01*
X128392857Y-95285714D01*
X128297619Y-95333333D01*
X128250000Y-95380952D01*
X128202380Y-95476190D01*
X128297619Y-96190476D02*
X128250000Y-96238095D01*
X128202380Y-96333333D01*
X128202380Y-96571428D01*
X128250000Y-96666666D01*
X128297619Y-96714285D01*
X128392857Y-96761904D01*
X128488095Y-96761904D01*
X128630952Y-96714285D01*
X129202380Y-96142857D01*
X129202380Y-96761904D01*
X128154761Y-97904761D02*
X129440476Y-97047619D01*
X128297619Y-98190476D02*
X128250000Y-98238095D01*
X128202380Y-98333333D01*
X128202380Y-98571428D01*
X128250000Y-98666666D01*
X128297619Y-98714285D01*
X128392857Y-98761904D01*
X128488095Y-98761904D01*
X128630952Y-98714285D01*
X129202380Y-98142857D01*
X129202380Y-98761904D01*
X128202380Y-99380952D02*
X128202380Y-99476190D01*
X128250000Y-99571428D01*
X128297619Y-99619047D01*
X128392857Y-99666666D01*
X128583333Y-99714285D01*
X128821428Y-99714285D01*
X129011904Y-99666666D01*
X129107142Y-99619047D01*
X129154761Y-99571428D01*
X129202380Y-99476190D01*
X129202380Y-99380952D01*
X129154761Y-99285714D01*
X129107142Y-99238095D01*
X129011904Y-99190476D01*
X128821428Y-99142857D01*
X128583333Y-99142857D01*
X128392857Y-99190476D01*
X128297619Y-99238095D01*
X128250000Y-99285714D01*
X128202380Y-99380952D01*
X129202380Y-100666666D02*
X129202380Y-100095238D01*
X129202380Y-100380952D02*
X128202380Y-100380952D01*
X128345238Y-100285714D01*
X128440476Y-100190476D01*
X128488095Y-100095238D01*
X129202380Y-101142857D02*
X129202380Y-101333333D01*
X129154761Y-101428571D01*
X129107142Y-101476190D01*
X128964285Y-101571428D01*
X128773809Y-101619047D01*
X128392857Y-101619047D01*
X128297619Y-101571428D01*
X128250000Y-101523809D01*
X128202380Y-101428571D01*
X128202380Y-101238095D01*
X128250000Y-101142857D01*
X128297619Y-101095238D01*
X128392857Y-101047619D01*
X128630952Y-101047619D01*
X128726190Y-101095238D01*
X128773809Y-101142857D01*
X128821428Y-101238095D01*
X128821428Y-101428571D01*
X128773809Y-101523809D01*
X128726190Y-101571428D01*
X128630952Y-101619047D01*
D11*
X142444000Y-92466900D02*
X144344000Y-92466900D01*
X142444000Y-90566900D02*
X142444000Y-92466900D01*
X144344000Y-90566900D02*
X142444000Y-90566900D01*
X144344000Y-92466900D02*
X144344000Y-90566900D01*
X144344000Y-95460700D02*
X144344000Y-93560700D01*
X144344000Y-93560700D02*
X142444000Y-93560700D01*
X142444000Y-93560700D02*
X142444000Y-95460700D01*
X142444000Y-95460700D02*
X144344000Y-95460700D01*
X121605000Y-97470000D02*
X123505000Y-97470000D01*
X123505000Y-97470000D02*
X123505000Y-95570000D01*
X123505000Y-95570000D02*
X121605000Y-95570000D01*
X121605000Y-95570000D02*
X121605000Y-97470000D01*
X118430000Y-97470000D02*
X120330000Y-97470000D01*
X120330000Y-97470000D02*
X120330000Y-95570000D01*
X120330000Y-95570000D02*
X118430000Y-95570000D01*
X118430000Y-95570000D02*
X118430000Y-97470000D01*
X115255000Y-95570000D02*
X115255000Y-97470000D01*
X117155000Y-95570000D02*
X115255000Y-95570000D01*
X117155000Y-97470000D02*
X117155000Y-95570000D01*
X115255000Y-97470000D02*
X117155000Y-97470000D01*
X112080000Y-97470000D02*
X113980000Y-97470000D01*
X113980000Y-97470000D02*
X113980000Y-95570000D01*
X113980000Y-95570000D02*
X112080000Y-95570000D01*
X112080000Y-95570000D02*
X112080000Y-97470000D01*
X118430000Y-89220000D02*
X118430000Y-91120000D01*
X120330000Y-89220000D02*
X118430000Y-89220000D01*
X120330000Y-91120000D02*
X120330000Y-89220000D01*
X118430000Y-91120000D02*
X120330000Y-91120000D01*
X112080000Y-91120000D02*
X113980000Y-91120000D01*
X113980000Y-91120000D02*
X113980000Y-89220000D01*
X113980000Y-89220000D02*
X112080000Y-89220000D01*
X112080000Y-89220000D02*
X112080000Y-91120000D01*
X115255000Y-89220000D02*
X115255000Y-91120000D01*
X117155000Y-89220000D02*
X115255000Y-89220000D01*
X117155000Y-91120000D02*
X117155000Y-89220000D01*
X115255000Y-91120000D02*
X117155000Y-91120000D01*
X121605000Y-91120000D02*
X123505000Y-91120000D01*
X123505000Y-91120000D02*
X123505000Y-89220000D01*
X123505000Y-89220000D02*
X121605000Y-89220000D01*
X121605000Y-89220000D02*
X121605000Y-91120000D01*
D12*
G36*
X136539918Y-90944744D02*
X136567568Y-91000201D01*
X136618480Y-91049148D01*
X136637338Y-91062629D01*
X136662015Y-91077314D01*
X136688816Y-91086842D01*
X136724587Y-91092293D01*
X136776169Y-91094747D01*
X136844267Y-91095286D01*
X136937588Y-91092852D01*
X137007657Y-91084394D01*
X137059931Y-91068174D01*
X137099869Y-91042454D01*
X137132929Y-91005497D01*
X137134886Y-91002782D01*
X137154908Y-90966360D01*
X137164815Y-90922502D01*
X137167257Y-90866724D01*
X137167257Y-90776048D01*
X137255283Y-90776010D01*
X137304308Y-90775166D01*
X137333065Y-90770024D01*
X137350311Y-90756587D01*
X137364808Y-90730858D01*
X137367769Y-90724679D01*
X137381648Y-90695764D01*
X137390414Y-90673376D01*
X137391171Y-90656729D01*
X137381023Y-90645036D01*
X137357073Y-90637510D01*
X137316426Y-90633366D01*
X137256186Y-90631815D01*
X137173455Y-90632071D01*
X137065339Y-90633349D01*
X137033000Y-90633748D01*
X136921524Y-90635185D01*
X136848603Y-90636472D01*
X136848603Y-90775971D01*
X136910499Y-90776755D01*
X136950997Y-90780240D01*
X136977708Y-90788124D01*
X136998244Y-90802105D01*
X137008260Y-90811597D01*
X137037567Y-90850404D01*
X137039952Y-90884763D01*
X137015750Y-90920216D01*
X137014857Y-90921114D01*
X136996153Y-90935539D01*
X136970732Y-90944313D01*
X136931584Y-90948739D01*
X136871697Y-90950118D01*
X136858430Y-90950143D01*
X136775901Y-90946812D01*
X136718691Y-90935969D01*
X136683766Y-90916340D01*
X136668094Y-90886650D01*
X136666514Y-90869491D01*
X136673926Y-90828766D01*
X136698330Y-90800832D01*
X136742980Y-90784017D01*
X136811130Y-90776650D01*
X136848603Y-90775971D01*
X136848603Y-90636472D01*
X136835245Y-90636708D01*
X136770333Y-90638677D01*
X136722958Y-90641450D01*
X136689290Y-90645388D01*
X136665498Y-90650849D01*
X136647753Y-90658192D01*
X136632224Y-90667777D01*
X136626381Y-90671887D01*
X136571185Y-90726405D01*
X136539890Y-90795336D01*
X136531165Y-90875072D01*
X136539918Y-90944744D01*
X136539918Y-90944744D01*
G37*
X136539918Y-90944744D02*
X136567568Y-91000201D01*
X136618480Y-91049148D01*
X136637338Y-91062629D01*
X136662015Y-91077314D01*
X136688816Y-91086842D01*
X136724587Y-91092293D01*
X136776169Y-91094747D01*
X136844267Y-91095286D01*
X136937588Y-91092852D01*
X137007657Y-91084394D01*
X137059931Y-91068174D01*
X137099869Y-91042454D01*
X137132929Y-91005497D01*
X137134886Y-91002782D01*
X137154908Y-90966360D01*
X137164815Y-90922502D01*
X137167257Y-90866724D01*
X137167257Y-90776048D01*
X137255283Y-90776010D01*
X137304308Y-90775166D01*
X137333065Y-90770024D01*
X137350311Y-90756587D01*
X137364808Y-90730858D01*
X137367769Y-90724679D01*
X137381648Y-90695764D01*
X137390414Y-90673376D01*
X137391171Y-90656729D01*
X137381023Y-90645036D01*
X137357073Y-90637510D01*
X137316426Y-90633366D01*
X137256186Y-90631815D01*
X137173455Y-90632071D01*
X137065339Y-90633349D01*
X137033000Y-90633748D01*
X136921524Y-90635185D01*
X136848603Y-90636472D01*
X136848603Y-90775971D01*
X136910499Y-90776755D01*
X136950997Y-90780240D01*
X136977708Y-90788124D01*
X136998244Y-90802105D01*
X137008260Y-90811597D01*
X137037567Y-90850404D01*
X137039952Y-90884763D01*
X137015750Y-90920216D01*
X137014857Y-90921114D01*
X136996153Y-90935539D01*
X136970732Y-90944313D01*
X136931584Y-90948739D01*
X136871697Y-90950118D01*
X136858430Y-90950143D01*
X136775901Y-90946812D01*
X136718691Y-90935969D01*
X136683766Y-90916340D01*
X136668094Y-90886650D01*
X136666514Y-90869491D01*
X136673926Y-90828766D01*
X136698330Y-90800832D01*
X136742980Y-90784017D01*
X136811130Y-90776650D01*
X136848603Y-90775971D01*
X136848603Y-90636472D01*
X136835245Y-90636708D01*
X136770333Y-90638677D01*
X136722958Y-90641450D01*
X136689290Y-90645388D01*
X136665498Y-90650849D01*
X136647753Y-90658192D01*
X136632224Y-90667777D01*
X136626381Y-90671887D01*
X136571185Y-90726405D01*
X136539890Y-90795336D01*
X136531165Y-90875072D01*
X136539918Y-90944744D01*
G36*
X136547780Y-92061093D02*
X136574723Y-92107672D01*
X136601466Y-92140057D01*
X136629484Y-92163742D01*
X136663748Y-92180059D01*
X136709227Y-92190339D01*
X136770892Y-92195914D01*
X136853711Y-92198116D01*
X136913246Y-92198371D01*
X137132391Y-92198371D01*
X137160044Y-92136686D01*
X137187697Y-92075000D01*
X136947670Y-92067743D01*
X136858028Y-92064744D01*
X136792962Y-92061598D01*
X136748026Y-92057701D01*
X136718770Y-92052447D01*
X136700748Y-92045231D01*
X136689511Y-92035450D01*
X136687079Y-92032312D01*
X136668083Y-91984761D01*
X136675600Y-91936697D01*
X136695543Y-91908086D01*
X136709675Y-91896447D01*
X136728220Y-91888391D01*
X136756334Y-91883271D01*
X136799173Y-91880441D01*
X136861895Y-91879256D01*
X136927261Y-91879057D01*
X137009268Y-91879018D01*
X137067316Y-91877614D01*
X137106465Y-91872914D01*
X137131780Y-91862987D01*
X137148323Y-91845903D01*
X137161156Y-91819732D01*
X137174491Y-91784775D01*
X137189007Y-91746596D01*
X136931389Y-91751141D01*
X136838519Y-91752971D01*
X136769889Y-91755112D01*
X136720711Y-91758181D01*
X136686198Y-91762794D01*
X136661562Y-91769568D01*
X136642016Y-91779119D01*
X136624770Y-91790634D01*
X136569680Y-91846190D01*
X136537822Y-91913980D01*
X136530191Y-91987713D01*
X136547780Y-92061093D01*
X136547780Y-92061093D01*
G37*
X136547780Y-92061093D02*
X136574723Y-92107672D01*
X136601466Y-92140057D01*
X136629484Y-92163742D01*
X136663748Y-92180059D01*
X136709227Y-92190339D01*
X136770892Y-92195914D01*
X136853711Y-92198116D01*
X136913246Y-92198371D01*
X137132391Y-92198371D01*
X137160044Y-92136686D01*
X137187697Y-92075000D01*
X136947670Y-92067743D01*
X136858028Y-92064744D01*
X136792962Y-92061598D01*
X136748026Y-92057701D01*
X136718770Y-92052447D01*
X136700748Y-92045231D01*
X136689511Y-92035450D01*
X136687079Y-92032312D01*
X136668083Y-91984761D01*
X136675600Y-91936697D01*
X136695543Y-91908086D01*
X136709675Y-91896447D01*
X136728220Y-91888391D01*
X136756334Y-91883271D01*
X136799173Y-91880441D01*
X136861895Y-91879256D01*
X136927261Y-91879057D01*
X137009268Y-91879018D01*
X137067316Y-91877614D01*
X137106465Y-91872914D01*
X137131780Y-91862987D01*
X137148323Y-91845903D01*
X137161156Y-91819732D01*
X137174491Y-91784775D01*
X137189007Y-91746596D01*
X136931389Y-91751141D01*
X136838519Y-91752971D01*
X136769889Y-91755112D01*
X136720711Y-91758181D01*
X136686198Y-91762794D01*
X136661562Y-91769568D01*
X136642016Y-91779119D01*
X136624770Y-91790634D01*
X136569680Y-91846190D01*
X136537822Y-91913980D01*
X136530191Y-91987713D01*
X136547780Y-92061093D01*
G36*
X136541962Y-90386115D02*
X136577733Y-90454145D01*
X136635301Y-90504351D01*
X136672312Y-90522185D01*
X136727882Y-90536063D01*
X136798096Y-90543167D01*
X136874727Y-90543840D01*
X136949552Y-90538427D01*
X137014342Y-90527270D01*
X137060873Y-90510714D01*
X137068887Y-90505626D01*
X137128707Y-90445355D01*
X137164535Y-90373769D01*
X137175020Y-90296092D01*
X137158810Y-90217548D01*
X137149092Y-90195689D01*
X137119143Y-90153122D01*
X137079433Y-90115763D01*
X137074397Y-90112232D01*
X137050124Y-90097881D01*
X137024178Y-90088394D01*
X136990022Y-90082790D01*
X136941119Y-90080086D01*
X136870935Y-90079299D01*
X136855200Y-90079286D01*
X136850192Y-90079322D01*
X136850192Y-90224429D01*
X136916430Y-90225273D01*
X136960386Y-90228596D01*
X136988779Y-90235583D01*
X137008325Y-90247416D01*
X137014857Y-90253457D01*
X137039680Y-90288186D01*
X137038548Y-90321903D01*
X137017016Y-90355995D01*
X136994029Y-90376329D01*
X136960478Y-90388371D01*
X136907569Y-90395134D01*
X136901399Y-90395598D01*
X136805513Y-90396752D01*
X136734299Y-90384688D01*
X136688194Y-90359570D01*
X136667635Y-90321560D01*
X136666514Y-90307992D01*
X136672152Y-90272364D01*
X136691686Y-90247994D01*
X136729042Y-90233093D01*
X136788150Y-90225875D01*
X136850192Y-90224429D01*
X136850192Y-90079322D01*
X136780413Y-90079826D01*
X136728159Y-90082096D01*
X136691949Y-90087068D01*
X136665299Y-90095713D01*
X136641722Y-90109005D01*
X136637338Y-90111943D01*
X136578249Y-90161313D01*
X136543947Y-90215109D01*
X136530331Y-90280602D01*
X136529665Y-90302842D01*
X136541962Y-90386115D01*
X136541962Y-90386115D01*
G37*
X136541962Y-90386115D02*
X136577733Y-90454145D01*
X136635301Y-90504351D01*
X136672312Y-90522185D01*
X136727882Y-90536063D01*
X136798096Y-90543167D01*
X136874727Y-90543840D01*
X136949552Y-90538427D01*
X137014342Y-90527270D01*
X137060873Y-90510714D01*
X137068887Y-90505626D01*
X137128707Y-90445355D01*
X137164535Y-90373769D01*
X137175020Y-90296092D01*
X137158810Y-90217548D01*
X137149092Y-90195689D01*
X137119143Y-90153122D01*
X137079433Y-90115763D01*
X137074397Y-90112232D01*
X137050124Y-90097881D01*
X137024178Y-90088394D01*
X136990022Y-90082790D01*
X136941119Y-90080086D01*
X136870935Y-90079299D01*
X136855200Y-90079286D01*
X136850192Y-90079322D01*
X136850192Y-90224429D01*
X136916430Y-90225273D01*
X136960386Y-90228596D01*
X136988779Y-90235583D01*
X137008325Y-90247416D01*
X137014857Y-90253457D01*
X137039680Y-90288186D01*
X137038548Y-90321903D01*
X137017016Y-90355995D01*
X136994029Y-90376329D01*
X136960478Y-90388371D01*
X136907569Y-90395134D01*
X136901399Y-90395598D01*
X136805513Y-90396752D01*
X136734299Y-90384688D01*
X136688194Y-90359570D01*
X136667635Y-90321560D01*
X136666514Y-90307992D01*
X136672152Y-90272364D01*
X136691686Y-90247994D01*
X136729042Y-90233093D01*
X136788150Y-90225875D01*
X136850192Y-90224429D01*
X136850192Y-90079322D01*
X136780413Y-90079826D01*
X136728159Y-90082096D01*
X136691949Y-90087068D01*
X136665299Y-90095713D01*
X136641722Y-90109005D01*
X136637338Y-90111943D01*
X136578249Y-90161313D01*
X136543947Y-90215109D01*
X136530331Y-90280602D01*
X136529665Y-90302842D01*
X136541962Y-90386115D01*
G36*
X136551239Y-91513303D02*
X136589735Y-91570527D01*
X136645335Y-91614749D01*
X136716086Y-91641167D01*
X136768162Y-91646510D01*
X136789893Y-91645903D01*
X136806531Y-91640822D01*
X136821437Y-91626855D01*
X136837973Y-91599589D01*
X136859498Y-91554612D01*
X136889374Y-91487511D01*
X136889524Y-91487171D01*
X136917813Y-91425407D01*
X136942933Y-91374759D01*
X136962179Y-91340404D01*
X136972848Y-91327518D01*
X136972934Y-91327514D01*
X136996166Y-91338872D01*
X137021774Y-91365431D01*
X137040221Y-91395923D01*
X137043886Y-91411370D01*
X137031212Y-91453515D01*
X136999471Y-91489808D01*
X136964572Y-91507517D01*
X136938845Y-91524552D01*
X136909546Y-91557922D01*
X136884235Y-91597149D01*
X136870471Y-91631756D01*
X136869714Y-91638993D01*
X136882160Y-91647139D01*
X136913972Y-91647630D01*
X136956866Y-91641643D01*
X137002558Y-91630357D01*
X137042761Y-91614950D01*
X137044322Y-91614171D01*
X137109062Y-91567804D01*
X137153097Y-91507711D01*
X137174711Y-91439465D01*
X137172185Y-91368638D01*
X137143804Y-91300804D01*
X137141808Y-91297788D01*
X137093448Y-91244427D01*
X137030352Y-91209340D01*
X136947387Y-91189922D01*
X136924078Y-91187316D01*
X136814055Y-91182701D01*
X136762748Y-91188233D01*
X136762748Y-91327514D01*
X136794753Y-91329324D01*
X136804093Y-91339222D01*
X136797105Y-91363898D01*
X136780587Y-91402795D01*
X136759881Y-91446275D01*
X136759333Y-91447356D01*
X136739949Y-91484209D01*
X136727013Y-91499000D01*
X136713451Y-91495353D01*
X136695632Y-91479995D01*
X136669845Y-91440923D01*
X136667950Y-91398846D01*
X136686717Y-91361103D01*
X136722915Y-91335034D01*
X136762748Y-91327514D01*
X136762748Y-91188233D01*
X136726027Y-91192194D01*
X136656212Y-91216550D01*
X136607302Y-91250456D01*
X136557878Y-91311653D01*
X136533359Y-91379063D01*
X136531797Y-91447880D01*
X136551239Y-91513303D01*
X136551239Y-91513303D01*
G37*
X136551239Y-91513303D02*
X136589735Y-91570527D01*
X136645335Y-91614749D01*
X136716086Y-91641167D01*
X136768162Y-91646510D01*
X136789893Y-91645903D01*
X136806531Y-91640822D01*
X136821437Y-91626855D01*
X136837973Y-91599589D01*
X136859498Y-91554612D01*
X136889374Y-91487511D01*
X136889524Y-91487171D01*
X136917813Y-91425407D01*
X136942933Y-91374759D01*
X136962179Y-91340404D01*
X136972848Y-91327518D01*
X136972934Y-91327514D01*
X136996166Y-91338872D01*
X137021774Y-91365431D01*
X137040221Y-91395923D01*
X137043886Y-91411370D01*
X137031212Y-91453515D01*
X136999471Y-91489808D01*
X136964572Y-91507517D01*
X136938845Y-91524552D01*
X136909546Y-91557922D01*
X136884235Y-91597149D01*
X136870471Y-91631756D01*
X136869714Y-91638993D01*
X136882160Y-91647139D01*
X136913972Y-91647630D01*
X136956866Y-91641643D01*
X137002558Y-91630357D01*
X137042761Y-91614950D01*
X137044322Y-91614171D01*
X137109062Y-91567804D01*
X137153097Y-91507711D01*
X137174711Y-91439465D01*
X137172185Y-91368638D01*
X137143804Y-91300804D01*
X137141808Y-91297788D01*
X137093448Y-91244427D01*
X137030352Y-91209340D01*
X136947387Y-91189922D01*
X136924078Y-91187316D01*
X136814055Y-91182701D01*
X136762748Y-91188233D01*
X136762748Y-91327514D01*
X136794753Y-91329324D01*
X136804093Y-91339222D01*
X136797105Y-91363898D01*
X136780587Y-91402795D01*
X136759881Y-91446275D01*
X136759333Y-91447356D01*
X136739949Y-91484209D01*
X136727013Y-91499000D01*
X136713451Y-91495353D01*
X136695632Y-91479995D01*
X136669845Y-91440923D01*
X136667950Y-91398846D01*
X136686717Y-91361103D01*
X136722915Y-91335034D01*
X136762748Y-91327514D01*
X136762748Y-91188233D01*
X136726027Y-91192194D01*
X136656212Y-91216550D01*
X136607302Y-91250456D01*
X136557878Y-91311653D01*
X136533359Y-91379063D01*
X136531797Y-91447880D01*
X136551239Y-91513303D01*
G36*
X136471289Y-92720886D02*
X136530613Y-92725139D01*
X136565572Y-92730025D01*
X136580820Y-92736795D01*
X136581015Y-92746702D01*
X136579195Y-92749914D01*
X136566015Y-92792644D01*
X136566785Y-92848227D01*
X136580333Y-92904737D01*
X136597861Y-92940082D01*
X136625861Y-92976321D01*
X136657549Y-93002813D01*
X136697813Y-93020999D01*
X136751543Y-93032322D01*
X136823626Y-93038222D01*
X136918951Y-93040143D01*
X136937237Y-93040177D01*
X137142646Y-93040200D01*
X137158580Y-92994491D01*
X137169420Y-92962027D01*
X137174468Y-92944215D01*
X137174514Y-92943691D01*
X137160828Y-92941937D01*
X137123076Y-92940444D01*
X137066224Y-92939326D01*
X136995234Y-92938697D01*
X136952073Y-92938600D01*
X136866973Y-92938398D01*
X136805981Y-92937358D01*
X136764177Y-92934831D01*
X136736642Y-92930164D01*
X136718456Y-92922707D01*
X136704698Y-92911811D01*
X136698073Y-92905007D01*
X136671375Y-92858272D01*
X136669375Y-92807272D01*
X136691955Y-92761001D01*
X136700107Y-92752444D01*
X136715436Y-92739893D01*
X136733618Y-92731188D01*
X136759909Y-92725631D01*
X136799562Y-92722526D01*
X136857832Y-92721176D01*
X136938173Y-92720886D01*
X137142646Y-92720886D01*
X137158580Y-92675177D01*
X137169420Y-92642713D01*
X137174468Y-92624901D01*
X137174514Y-92624377D01*
X137160623Y-92623037D01*
X137121439Y-92621828D01*
X137060700Y-92620801D01*
X136982141Y-92620002D01*
X136889498Y-92619481D01*
X136786509Y-92619286D01*
X136389342Y-92619286D01*
X136369444Y-92666457D01*
X136349547Y-92713629D01*
X136471289Y-92720886D01*
X136471289Y-92720886D01*
G37*
X136471289Y-92720886D02*
X136530613Y-92725139D01*
X136565572Y-92730025D01*
X136580820Y-92736795D01*
X136581015Y-92746702D01*
X136579195Y-92749914D01*
X136566015Y-92792644D01*
X136566785Y-92848227D01*
X136580333Y-92904737D01*
X136597861Y-92940082D01*
X136625861Y-92976321D01*
X136657549Y-93002813D01*
X136697813Y-93020999D01*
X136751543Y-93032322D01*
X136823626Y-93038222D01*
X136918951Y-93040143D01*
X136937237Y-93040177D01*
X137142646Y-93040200D01*
X137158580Y-92994491D01*
X137169420Y-92962027D01*
X137174468Y-92944215D01*
X137174514Y-92943691D01*
X137160828Y-92941937D01*
X137123076Y-92940444D01*
X137066224Y-92939326D01*
X136995234Y-92938697D01*
X136952073Y-92938600D01*
X136866973Y-92938398D01*
X136805981Y-92937358D01*
X136764177Y-92934831D01*
X136736642Y-92930164D01*
X136718456Y-92922707D01*
X136704698Y-92911811D01*
X136698073Y-92905007D01*
X136671375Y-92858272D01*
X136669375Y-92807272D01*
X136691955Y-92761001D01*
X136700107Y-92752444D01*
X136715436Y-92739893D01*
X136733618Y-92731188D01*
X136759909Y-92725631D01*
X136799562Y-92722526D01*
X136857832Y-92721176D01*
X136938173Y-92720886D01*
X137142646Y-92720886D01*
X137158580Y-92675177D01*
X137169420Y-92642713D01*
X137174468Y-92624901D01*
X137174514Y-92624377D01*
X137160623Y-92623037D01*
X137121439Y-92621828D01*
X137060700Y-92620801D01*
X136982141Y-92620002D01*
X136889498Y-92619481D01*
X136786509Y-92619286D01*
X136389342Y-92619286D01*
X136369444Y-92666457D01*
X136349547Y-92713629D01*
X136471289Y-92720886D01*
G36*
X136570968Y-93384744D02*
X136592087Y-93441616D01*
X136592493Y-93442267D01*
X136618380Y-93477440D01*
X136648633Y-93503407D01*
X136688058Y-93521670D01*
X136741462Y-93533732D01*
X136813651Y-93541096D01*
X136909432Y-93545264D01*
X136923078Y-93545629D01*
X137128842Y-93550876D01*
X137151678Y-93506716D01*
X137167110Y-93474763D01*
X137174423Y-93455470D01*
X137174514Y-93454578D01*
X137161022Y-93451239D01*
X137124626Y-93448587D01*
X137071452Y-93446956D01*
X137028393Y-93446600D01*
X136958641Y-93446592D01*
X136914837Y-93443403D01*
X136893944Y-93432288D01*
X136892925Y-93408501D01*
X136908741Y-93367296D01*
X136937815Y-93305086D01*
X136961963Y-93259341D01*
X136982913Y-93235813D01*
X137005747Y-93228896D01*
X137006877Y-93228886D01*
X137046212Y-93240299D01*
X137067462Y-93274092D01*
X137070539Y-93325809D01*
X137070006Y-93363061D01*
X137080735Y-93382703D01*
X137106505Y-93394952D01*
X137139337Y-93402002D01*
X137157966Y-93391842D01*
X137160632Y-93388017D01*
X137171340Y-93352001D01*
X137172856Y-93301566D01*
X137165759Y-93249626D01*
X137152788Y-93212822D01*
X137109585Y-93161938D01*
X137049446Y-93133014D01*
X137002462Y-93127286D01*
X136960082Y-93131657D01*
X136925488Y-93147475D01*
X136894763Y-93178797D01*
X136863990Y-93229678D01*
X136829252Y-93304176D01*
X136827288Y-93308714D01*
X136796287Y-93375821D01*
X136770862Y-93417232D01*
X136748014Y-93434981D01*
X136724745Y-93431107D01*
X136698056Y-93407643D01*
X136691914Y-93400627D01*
X136668100Y-93353630D01*
X136669103Y-93304933D01*
X136692451Y-93262522D01*
X136735675Y-93234384D01*
X136744160Y-93231769D01*
X136785308Y-93206308D01*
X136805128Y-93174001D01*
X136824770Y-93127286D01*
X136773950Y-93127286D01*
X136700082Y-93141496D01*
X136632327Y-93183675D01*
X136609661Y-93205624D01*
X136580569Y-93255517D01*
X136567400Y-93318967D01*
X136570968Y-93384744D01*
X136570968Y-93384744D01*
G37*
X136570968Y-93384744D02*
X136592087Y-93441616D01*
X136592493Y-93442267D01*
X136618380Y-93477440D01*
X136648633Y-93503407D01*
X136688058Y-93521670D01*
X136741462Y-93533732D01*
X136813651Y-93541096D01*
X136909432Y-93545264D01*
X136923078Y-93545629D01*
X137128842Y-93550876D01*
X137151678Y-93506716D01*
X137167110Y-93474763D01*
X137174423Y-93455470D01*
X137174514Y-93454578D01*
X137161022Y-93451239D01*
X137124626Y-93448587D01*
X137071452Y-93446956D01*
X137028393Y-93446600D01*
X136958641Y-93446592D01*
X136914837Y-93443403D01*
X136893944Y-93432288D01*
X136892925Y-93408501D01*
X136908741Y-93367296D01*
X136937815Y-93305086D01*
X136961963Y-93259341D01*
X136982913Y-93235813D01*
X137005747Y-93228896D01*
X137006877Y-93228886D01*
X137046212Y-93240299D01*
X137067462Y-93274092D01*
X137070539Y-93325809D01*
X137070006Y-93363061D01*
X137080735Y-93382703D01*
X137106505Y-93394952D01*
X137139337Y-93402002D01*
X137157966Y-93391842D01*
X137160632Y-93388017D01*
X137171340Y-93352001D01*
X137172856Y-93301566D01*
X137165759Y-93249626D01*
X137152788Y-93212822D01*
X137109585Y-93161938D01*
X137049446Y-93133014D01*
X137002462Y-93127286D01*
X136960082Y-93131657D01*
X136925488Y-93147475D01*
X136894763Y-93178797D01*
X136863990Y-93229678D01*
X136829252Y-93304176D01*
X136827288Y-93308714D01*
X136796287Y-93375821D01*
X136770862Y-93417232D01*
X136748014Y-93434981D01*
X136724745Y-93431107D01*
X136698056Y-93407643D01*
X136691914Y-93400627D01*
X136668100Y-93353630D01*
X136669103Y-93304933D01*
X136692451Y-93262522D01*
X136735675Y-93234384D01*
X136744160Y-93231769D01*
X136785308Y-93206308D01*
X136805128Y-93174001D01*
X136824770Y-93127286D01*
X136773950Y-93127286D01*
X136700082Y-93141496D01*
X136632327Y-93183675D01*
X136609661Y-93205624D01*
X136580569Y-93255517D01*
X136567400Y-93318967D01*
X136570968Y-93384744D01*
G36*
X136569755Y-93874926D02*
X136594084Y-93940858D01*
X136637117Y-93994273D01*
X136667409Y-94015164D01*
X136722994Y-94037939D01*
X136763186Y-94037466D01*
X136790217Y-94013562D01*
X136794813Y-94004717D01*
X136809144Y-93966530D01*
X136805472Y-93947028D01*
X136781407Y-93940422D01*
X136768114Y-93940086D01*
X136719210Y-93927992D01*
X136684999Y-93896471D01*
X136668476Y-93852659D01*
X136672634Y-93803695D01*
X136694227Y-93763894D01*
X136706544Y-93750450D01*
X136721487Y-93740921D01*
X136744075Y-93734485D01*
X136779328Y-93730317D01*
X136832266Y-93727597D01*
X136907907Y-93725502D01*
X136931857Y-93724960D01*
X137013790Y-93722981D01*
X137071455Y-93720731D01*
X137109608Y-93717357D01*
X137133004Y-93712006D01*
X137146398Y-93703824D01*
X137154545Y-93691959D01*
X137158144Y-93684362D01*
X137170452Y-93652102D01*
X137174514Y-93633111D01*
X137160948Y-93626836D01*
X137119934Y-93623006D01*
X137050999Y-93621600D01*
X136953669Y-93622598D01*
X136938657Y-93622908D01*
X136849859Y-93625101D01*
X136785019Y-93627693D01*
X136739067Y-93631382D01*
X136706935Y-93636864D01*
X136683553Y-93644835D01*
X136663852Y-93655993D01*
X136655410Y-93661830D01*
X136618057Y-93695296D01*
X136589003Y-93732727D01*
X136586467Y-93737309D01*
X136566443Y-93804426D01*
X136569755Y-93874926D01*
X136569755Y-93874926D01*
G37*
X136569755Y-93874926D02*
X136594084Y-93940858D01*
X136637117Y-93994273D01*
X136667409Y-94015164D01*
X136722994Y-94037939D01*
X136763186Y-94037466D01*
X136790217Y-94013562D01*
X136794813Y-94004717D01*
X136809144Y-93966530D01*
X136805472Y-93947028D01*
X136781407Y-93940422D01*
X136768114Y-93940086D01*
X136719210Y-93927992D01*
X136684999Y-93896471D01*
X136668476Y-93852659D01*
X136672634Y-93803695D01*
X136694227Y-93763894D01*
X136706544Y-93750450D01*
X136721487Y-93740921D01*
X136744075Y-93734485D01*
X136779328Y-93730317D01*
X136832266Y-93727597D01*
X136907907Y-93725502D01*
X136931857Y-93724960D01*
X137013790Y-93722981D01*
X137071455Y-93720731D01*
X137109608Y-93717357D01*
X137133004Y-93712006D01*
X137146398Y-93703824D01*
X137154545Y-93691959D01*
X137158144Y-93684362D01*
X137170452Y-93652102D01*
X137174514Y-93633111D01*
X137160948Y-93626836D01*
X137119934Y-93623006D01*
X137050999Y-93621600D01*
X136953669Y-93622598D01*
X136938657Y-93622908D01*
X136849859Y-93625101D01*
X136785019Y-93627693D01*
X136739067Y-93631382D01*
X136706935Y-93636864D01*
X136683553Y-93644835D01*
X136663852Y-93655993D01*
X136655410Y-93661830D01*
X136618057Y-93695296D01*
X136589003Y-93732727D01*
X136586467Y-93737309D01*
X136566443Y-93804426D01*
X136569755Y-93874926D01*
G36*
X136685358Y-94535117D02*
X136793837Y-94534933D01*
X136877287Y-94534219D01*
X136939704Y-94532675D01*
X136985085Y-94530001D01*
X137017429Y-94525894D01*
X137040733Y-94520055D01*
X137058995Y-94512182D01*
X137069418Y-94506221D01*
X137125945Y-94456855D01*
X137161377Y-94394264D01*
X137174090Y-94325013D01*
X137162463Y-94255668D01*
X137141568Y-94214375D01*
X137105422Y-94171025D01*
X137061276Y-94141481D01*
X137003462Y-94123655D01*
X136926313Y-94115463D01*
X136869714Y-94114302D01*
X136865647Y-94114458D01*
X136865647Y-94215857D01*
X136930550Y-94216476D01*
X136973514Y-94219314D01*
X137001622Y-94225840D01*
X137021953Y-94237523D01*
X137037288Y-94251483D01*
X137066890Y-94298365D01*
X137069419Y-94348701D01*
X137044705Y-94396276D01*
X137041356Y-94399979D01*
X137023935Y-94415783D01*
X137003209Y-94425693D01*
X136972362Y-94431058D01*
X136924577Y-94433228D01*
X136871748Y-94433571D01*
X136805381Y-94432827D01*
X136761106Y-94429748D01*
X136732009Y-94423061D01*
X136711173Y-94411496D01*
X136700107Y-94402013D01*
X136672198Y-94357960D01*
X136668843Y-94307224D01*
X136690159Y-94258796D01*
X136698073Y-94249450D01*
X136715647Y-94233540D01*
X136736587Y-94223610D01*
X136767782Y-94218278D01*
X136816122Y-94216163D01*
X136865647Y-94215857D01*
X136865647Y-94114458D01*
X136778568Y-94117810D01*
X136710086Y-94129726D01*
X136658600Y-94152135D01*
X136618443Y-94187124D01*
X136597861Y-94214375D01*
X136575625Y-94263907D01*
X136565304Y-94321316D01*
X136568067Y-94374682D01*
X136579212Y-94404543D01*
X136582383Y-94416261D01*
X136570557Y-94424037D01*
X136538866Y-94429465D01*
X136490593Y-94433571D01*
X136436829Y-94438067D01*
X136404482Y-94444313D01*
X136385985Y-94455676D01*
X136373770Y-94475528D01*
X136368362Y-94488000D01*
X136348601Y-94535171D01*
X136685358Y-94535117D01*
X136685358Y-94535117D01*
G37*
X136685358Y-94535117D02*
X136793837Y-94534933D01*
X136877287Y-94534219D01*
X136939704Y-94532675D01*
X136985085Y-94530001D01*
X137017429Y-94525894D01*
X137040733Y-94520055D01*
X137058995Y-94512182D01*
X137069418Y-94506221D01*
X137125945Y-94456855D01*
X137161377Y-94394264D01*
X137174090Y-94325013D01*
X137162463Y-94255668D01*
X137141568Y-94214375D01*
X137105422Y-94171025D01*
X137061276Y-94141481D01*
X137003462Y-94123655D01*
X136926313Y-94115463D01*
X136869714Y-94114302D01*
X136865647Y-94114458D01*
X136865647Y-94215857D01*
X136930550Y-94216476D01*
X136973514Y-94219314D01*
X137001622Y-94225840D01*
X137021953Y-94237523D01*
X137037288Y-94251483D01*
X137066890Y-94298365D01*
X137069419Y-94348701D01*
X137044705Y-94396276D01*
X137041356Y-94399979D01*
X137023935Y-94415783D01*
X137003209Y-94425693D01*
X136972362Y-94431058D01*
X136924577Y-94433228D01*
X136871748Y-94433571D01*
X136805381Y-94432827D01*
X136761106Y-94429748D01*
X136732009Y-94423061D01*
X136711173Y-94411496D01*
X136700107Y-94402013D01*
X136672198Y-94357960D01*
X136668843Y-94307224D01*
X136690159Y-94258796D01*
X136698073Y-94249450D01*
X136715647Y-94233540D01*
X136736587Y-94223610D01*
X136767782Y-94218278D01*
X136816122Y-94216163D01*
X136865647Y-94215857D01*
X136865647Y-94114458D01*
X136778568Y-94117810D01*
X136710086Y-94129726D01*
X136658600Y-94152135D01*
X136618443Y-94187124D01*
X136597861Y-94214375D01*
X136575625Y-94263907D01*
X136565304Y-94321316D01*
X136568067Y-94374682D01*
X136579212Y-94404543D01*
X136582383Y-94416261D01*
X136570557Y-94424037D01*
X136538866Y-94429465D01*
X136490593Y-94433571D01*
X136436829Y-94438067D01*
X136404482Y-94444313D01*
X136385985Y-94455676D01*
X136373770Y-94475528D01*
X136368362Y-94488000D01*
X136348601Y-94535171D01*
X136685358Y-94535117D01*
G36*
X136578663Y-95124833D02*
X136616850Y-95127048D01*
X136674886Y-95128784D01*
X136748180Y-95129899D01*
X136825055Y-95130257D01*
X137085196Y-95130257D01*
X137131127Y-95084326D01*
X137159429Y-95052675D01*
X137170893Y-95024890D01*
X137170168Y-94986915D01*
X137168321Y-94971840D01*
X137162948Y-94924726D01*
X137159869Y-94885756D01*
X137159585Y-94876257D01*
X137161445Y-94844233D01*
X137166114Y-94798432D01*
X137168321Y-94780674D01*
X137171735Y-94737057D01*
X137164320Y-94707745D01*
X137141427Y-94678680D01*
X137131127Y-94668188D01*
X137085196Y-94622257D01*
X136598602Y-94622257D01*
X136581758Y-94659226D01*
X136569282Y-94691059D01*
X136564914Y-94709683D01*
X136578718Y-94714458D01*
X136617286Y-94718921D01*
X136676356Y-94722775D01*
X136751663Y-94725722D01*
X136815286Y-94727143D01*
X137065657Y-94731114D01*
X137070556Y-94765759D01*
X137067131Y-94797268D01*
X137056041Y-94812708D01*
X137035308Y-94817023D01*
X136991145Y-94820708D01*
X136929146Y-94823469D01*
X136854909Y-94825012D01*
X136816706Y-94825235D01*
X136596783Y-94825457D01*
X136580849Y-94871166D01*
X136570015Y-94903518D01*
X136564962Y-94921115D01*
X136564914Y-94921623D01*
X136578648Y-94923388D01*
X136616730Y-94925329D01*
X136674482Y-94927282D01*
X136747227Y-94929084D01*
X136815286Y-94930343D01*
X137065657Y-94934314D01*
X137065657Y-95021400D01*
X136837240Y-95025396D01*
X136608822Y-95029392D01*
X136586868Y-95071847D01*
X136571793Y-95103192D01*
X136564951Y-95121744D01*
X136564914Y-95122279D01*
X136578663Y-95124833D01*
X136578663Y-95124833D01*
G37*
X136578663Y-95124833D02*
X136616850Y-95127048D01*
X136674886Y-95128784D01*
X136748180Y-95129899D01*
X136825055Y-95130257D01*
X137085196Y-95130257D01*
X137131127Y-95084326D01*
X137159429Y-95052675D01*
X137170893Y-95024890D01*
X137170168Y-94986915D01*
X137168321Y-94971840D01*
X137162948Y-94924726D01*
X137159869Y-94885756D01*
X137159585Y-94876257D01*
X137161445Y-94844233D01*
X137166114Y-94798432D01*
X137168321Y-94780674D01*
X137171735Y-94737057D01*
X137164320Y-94707745D01*
X137141427Y-94678680D01*
X137131127Y-94668188D01*
X137085196Y-94622257D01*
X136598602Y-94622257D01*
X136581758Y-94659226D01*
X136569282Y-94691059D01*
X136564914Y-94709683D01*
X136578718Y-94714458D01*
X136617286Y-94718921D01*
X136676356Y-94722775D01*
X136751663Y-94725722D01*
X136815286Y-94727143D01*
X137065657Y-94731114D01*
X137070556Y-94765759D01*
X137067131Y-94797268D01*
X137056041Y-94812708D01*
X137035308Y-94817023D01*
X136991145Y-94820708D01*
X136929146Y-94823469D01*
X136854909Y-94825012D01*
X136816706Y-94825235D01*
X136596783Y-94825457D01*
X136580849Y-94871166D01*
X136570015Y-94903518D01*
X136564962Y-94921115D01*
X136564914Y-94921623D01*
X136578648Y-94923388D01*
X136616730Y-94925329D01*
X136674482Y-94927282D01*
X136747227Y-94929084D01*
X136815286Y-94930343D01*
X137065657Y-94934314D01*
X137065657Y-95021400D01*
X136837240Y-95025396D01*
X136608822Y-95029392D01*
X136586868Y-95071847D01*
X136571793Y-95103192D01*
X136564951Y-95121744D01*
X136564914Y-95122279D01*
X136578663Y-95124833D01*
G36*
X136576335Y-95489876D02*
X136595344Y-95531667D01*
X136618378Y-95564469D01*
X136644133Y-95588503D01*
X136677358Y-95605097D01*
X136722800Y-95615577D01*
X136785207Y-95621271D01*
X136869327Y-95623507D01*
X136924721Y-95623743D01*
X137140826Y-95623743D01*
X137157670Y-95586774D01*
X137169981Y-95557656D01*
X137174514Y-95543231D01*
X137161025Y-95540472D01*
X137124653Y-95538282D01*
X137071542Y-95536942D01*
X137029372Y-95536657D01*
X136968447Y-95535434D01*
X136920115Y-95532136D01*
X136890518Y-95527321D01*
X136884229Y-95523496D01*
X136890652Y-95497783D01*
X136907125Y-95457418D01*
X136929458Y-95410679D01*
X136953457Y-95365845D01*
X136974930Y-95331193D01*
X136989685Y-95315002D01*
X136989845Y-95314938D01*
X137017152Y-95316330D01*
X137043219Y-95328818D01*
X137064392Y-95350743D01*
X137071474Y-95382743D01*
X137070649Y-95410092D01*
X137070042Y-95448826D01*
X137079116Y-95469158D01*
X137103092Y-95481369D01*
X137107613Y-95482909D01*
X137141806Y-95488203D01*
X137162568Y-95474047D01*
X137172462Y-95437148D01*
X137174292Y-95397289D01*
X137160727Y-95325562D01*
X137141355Y-95288432D01*
X137095845Y-95242576D01*
X137039983Y-95218256D01*
X136980957Y-95216073D01*
X136925953Y-95236629D01*
X136891486Y-95267549D01*
X136872189Y-95298420D01*
X136847759Y-95346942D01*
X136822985Y-95403485D01*
X136819199Y-95412910D01*
X136791791Y-95475019D01*
X136767634Y-95510822D01*
X136743619Y-95522337D01*
X136716635Y-95511580D01*
X136695543Y-95493114D01*
X136669572Y-95449469D01*
X136667624Y-95401446D01*
X136687637Y-95357406D01*
X136727551Y-95325709D01*
X136737848Y-95321549D01*
X136775724Y-95297327D01*
X136803842Y-95261965D01*
X136826917Y-95217343D01*
X136761485Y-95217343D01*
X136721506Y-95219969D01*
X136689997Y-95231230D01*
X136656378Y-95256199D01*
X136630484Y-95280169D01*
X136593817Y-95317441D01*
X136574121Y-95346401D01*
X136566220Y-95377505D01*
X136564914Y-95412713D01*
X136576335Y-95489876D01*
X136576335Y-95489876D01*
G37*
X136576335Y-95489876D02*
X136595344Y-95531667D01*
X136618378Y-95564469D01*
X136644133Y-95588503D01*
X136677358Y-95605097D01*
X136722800Y-95615577D01*
X136785207Y-95621271D01*
X136869327Y-95623507D01*
X136924721Y-95623743D01*
X137140826Y-95623743D01*
X137157670Y-95586774D01*
X137169981Y-95557656D01*
X137174514Y-95543231D01*
X137161025Y-95540472D01*
X137124653Y-95538282D01*
X137071542Y-95536942D01*
X137029372Y-95536657D01*
X136968447Y-95535434D01*
X136920115Y-95532136D01*
X136890518Y-95527321D01*
X136884229Y-95523496D01*
X136890652Y-95497783D01*
X136907125Y-95457418D01*
X136929458Y-95410679D01*
X136953457Y-95365845D01*
X136974930Y-95331193D01*
X136989685Y-95315002D01*
X136989845Y-95314938D01*
X137017152Y-95316330D01*
X137043219Y-95328818D01*
X137064392Y-95350743D01*
X137071474Y-95382743D01*
X137070649Y-95410092D01*
X137070042Y-95448826D01*
X137079116Y-95469158D01*
X137103092Y-95481369D01*
X137107613Y-95482909D01*
X137141806Y-95488203D01*
X137162568Y-95474047D01*
X137172462Y-95437148D01*
X137174292Y-95397289D01*
X137160727Y-95325562D01*
X137141355Y-95288432D01*
X137095845Y-95242576D01*
X137039983Y-95218256D01*
X136980957Y-95216073D01*
X136925953Y-95236629D01*
X136891486Y-95267549D01*
X136872189Y-95298420D01*
X136847759Y-95346942D01*
X136822985Y-95403485D01*
X136819199Y-95412910D01*
X136791791Y-95475019D01*
X136767634Y-95510822D01*
X136743619Y-95522337D01*
X136716635Y-95511580D01*
X136695543Y-95493114D01*
X136669572Y-95449469D01*
X136667624Y-95401446D01*
X136687637Y-95357406D01*
X136727551Y-95325709D01*
X136737848Y-95321549D01*
X136775724Y-95297327D01*
X136803842Y-95261965D01*
X136826917Y-95217343D01*
X136761485Y-95217343D01*
X136721506Y-95219969D01*
X136689997Y-95231230D01*
X136656378Y-95256199D01*
X136630484Y-95280169D01*
X136593817Y-95317441D01*
X136574121Y-95346401D01*
X136566220Y-95377505D01*
X136564914Y-95412713D01*
X136576335Y-95489876D01*
G36*
X136578752Y-95997600D02*
X136586334Y-96014948D01*
X136619128Y-96056356D01*
X136666547Y-96091765D01*
X136717151Y-96113664D01*
X136742098Y-96117229D01*
X136776927Y-96105279D01*
X136795357Y-96079067D01*
X136806516Y-96050964D01*
X136808572Y-96038095D01*
X136793649Y-96031829D01*
X136761175Y-96019456D01*
X136746502Y-96014028D01*
X136695744Y-95983590D01*
X136670427Y-95939520D01*
X136671206Y-95883010D01*
X136672203Y-95878825D01*
X136686507Y-95848655D01*
X136714393Y-95826476D01*
X136759287Y-95811327D01*
X136824615Y-95802250D01*
X136913804Y-95798286D01*
X136961261Y-95797914D01*
X137036071Y-95797730D01*
X137087069Y-95796522D01*
X137119471Y-95793309D01*
X137138495Y-95787109D01*
X137149356Y-95776940D01*
X137157272Y-95761819D01*
X137157670Y-95760946D01*
X137169981Y-95731828D01*
X137174514Y-95717403D01*
X137160809Y-95715186D01*
X137122925Y-95713289D01*
X137065715Y-95711847D01*
X136994027Y-95710998D01*
X136941565Y-95710829D01*
X136840047Y-95711692D01*
X136763032Y-95715070D01*
X136706023Y-95722142D01*
X136664526Y-95734088D01*
X136634043Y-95752090D01*
X136610080Y-95777327D01*
X136593355Y-95802247D01*
X136571097Y-95862171D01*
X136566076Y-95931911D01*
X136578752Y-95997600D01*
X136578752Y-95997600D01*
G37*
X136578752Y-95997600D02*
X136586334Y-96014948D01*
X136619128Y-96056356D01*
X136666547Y-96091765D01*
X136717151Y-96113664D01*
X136742098Y-96117229D01*
X136776927Y-96105279D01*
X136795357Y-96079067D01*
X136806516Y-96050964D01*
X136808572Y-96038095D01*
X136793649Y-96031829D01*
X136761175Y-96019456D01*
X136746502Y-96014028D01*
X136695744Y-95983590D01*
X136670427Y-95939520D01*
X136671206Y-95883010D01*
X136672203Y-95878825D01*
X136686507Y-95848655D01*
X136714393Y-95826476D01*
X136759287Y-95811327D01*
X136824615Y-95802250D01*
X136913804Y-95798286D01*
X136961261Y-95797914D01*
X137036071Y-95797730D01*
X137087069Y-95796522D01*
X137119471Y-95793309D01*
X137138495Y-95787109D01*
X137149356Y-95776940D01*
X137157272Y-95761819D01*
X137157670Y-95760946D01*
X137169981Y-95731828D01*
X137174514Y-95717403D01*
X137160809Y-95715186D01*
X137122925Y-95713289D01*
X137065715Y-95711847D01*
X136994027Y-95710998D01*
X136941565Y-95710829D01*
X136840047Y-95711692D01*
X136763032Y-95715070D01*
X136706023Y-95722142D01*
X136664526Y-95734088D01*
X136634043Y-95752090D01*
X136610080Y-95777327D01*
X136593355Y-95802247D01*
X136571097Y-95862171D01*
X136566076Y-95931911D01*
X136578752Y-95997600D01*
G36*
X136586966Y-96498595D02*
X136624497Y-96556021D01*
X136658096Y-96583719D01*
X136719064Y-96605662D01*
X136767308Y-96607405D01*
X136831816Y-96603457D01*
X136896934Y-96454686D01*
X136930202Y-96382349D01*
X136956964Y-96335084D01*
X136980144Y-96310507D01*
X137002667Y-96306237D01*
X137027455Y-96319889D01*
X137043886Y-96334943D01*
X137070235Y-96378746D01*
X137072081Y-96426389D01*
X137051546Y-96470145D01*
X137010752Y-96502289D01*
X136996347Y-96508038D01*
X136951356Y-96535576D01*
X136932182Y-96567258D01*
X136915779Y-96610714D01*
X136977966Y-96610714D01*
X137020283Y-96606872D01*
X137055969Y-96591823D01*
X137096943Y-96560280D01*
X137102267Y-96555592D01*
X137138720Y-96520506D01*
X137158283Y-96490347D01*
X137167283Y-96452615D01*
X137170230Y-96421335D01*
X137170965Y-96365385D01*
X137161660Y-96325555D01*
X137147846Y-96300708D01*
X137117467Y-96261656D01*
X137084613Y-96234625D01*
X137043294Y-96217517D01*
X136987521Y-96208238D01*
X136911305Y-96204693D01*
X136872622Y-96204410D01*
X136826247Y-96205372D01*
X136826247Y-96293007D01*
X136851126Y-96294023D01*
X136855200Y-96296556D01*
X136849665Y-96313274D01*
X136835017Y-96349249D01*
X136814190Y-96397331D01*
X136809714Y-96407386D01*
X136778814Y-96468152D01*
X136751657Y-96501632D01*
X136726220Y-96508990D01*
X136700481Y-96491391D01*
X136689109Y-96476856D01*
X136666364Y-96424410D01*
X136670122Y-96375322D01*
X136697884Y-96334227D01*
X136747152Y-96305758D01*
X136786257Y-96296631D01*
X136826247Y-96293007D01*
X136826247Y-96205372D01*
X136782249Y-96206285D01*
X136715384Y-96213196D01*
X136666695Y-96226884D01*
X136630849Y-96249096D01*
X136602513Y-96281574D01*
X136593355Y-96295733D01*
X136569507Y-96360053D01*
X136568006Y-96430473D01*
X136586966Y-96498595D01*
X136586966Y-96498595D01*
G37*
X136586966Y-96498595D02*
X136624497Y-96556021D01*
X136658096Y-96583719D01*
X136719064Y-96605662D01*
X136767308Y-96607405D01*
X136831816Y-96603457D01*
X136896934Y-96454686D01*
X136930202Y-96382349D01*
X136956964Y-96335084D01*
X136980144Y-96310507D01*
X137002667Y-96306237D01*
X137027455Y-96319889D01*
X137043886Y-96334943D01*
X137070235Y-96378746D01*
X137072081Y-96426389D01*
X137051546Y-96470145D01*
X137010752Y-96502289D01*
X136996347Y-96508038D01*
X136951356Y-96535576D01*
X136932182Y-96567258D01*
X136915779Y-96610714D01*
X136977966Y-96610714D01*
X137020283Y-96606872D01*
X137055969Y-96591823D01*
X137096943Y-96560280D01*
X137102267Y-96555592D01*
X137138720Y-96520506D01*
X137158283Y-96490347D01*
X137167283Y-96452615D01*
X137170230Y-96421335D01*
X137170965Y-96365385D01*
X137161660Y-96325555D01*
X137147846Y-96300708D01*
X137117467Y-96261656D01*
X137084613Y-96234625D01*
X137043294Y-96217517D01*
X136987521Y-96208238D01*
X136911305Y-96204693D01*
X136872622Y-96204410D01*
X136826247Y-96205372D01*
X136826247Y-96293007D01*
X136851126Y-96294023D01*
X136855200Y-96296556D01*
X136849665Y-96313274D01*
X136835017Y-96349249D01*
X136814190Y-96397331D01*
X136809714Y-96407386D01*
X136778814Y-96468152D01*
X136751657Y-96501632D01*
X136726220Y-96508990D01*
X136700481Y-96491391D01*
X136689109Y-96476856D01*
X136666364Y-96424410D01*
X136670122Y-96375322D01*
X136697884Y-96334227D01*
X136747152Y-96305758D01*
X136786257Y-96296631D01*
X136826247Y-96293007D01*
X136826247Y-96205372D01*
X136782249Y-96206285D01*
X136715384Y-96213196D01*
X136666695Y-96226884D01*
X136630849Y-96249096D01*
X136602513Y-96281574D01*
X136593355Y-96295733D01*
X136569507Y-96360053D01*
X136568006Y-96430473D01*
X136586966Y-96498595D01*
G36*
X131862348Y-93448910D02*
X131862778Y-93527454D01*
X131863942Y-93584298D01*
X131866207Y-93623105D01*
X131869940Y-93647538D01*
X131875506Y-93661262D01*
X131883273Y-93667940D01*
X131893605Y-93671236D01*
X131894943Y-93671556D01*
X131919079Y-93676562D01*
X131966701Y-93685829D01*
X132032741Y-93698392D01*
X132112128Y-93713287D01*
X132199796Y-93729551D01*
X132202875Y-93730119D01*
X132288789Y-93746410D01*
X132364696Y-93761652D01*
X132426045Y-93774861D01*
X132468282Y-93785054D01*
X132486855Y-93791248D01*
X132487184Y-93791543D01*
X132496253Y-93809788D01*
X132511367Y-93847405D01*
X132529262Y-93896271D01*
X132529358Y-93896543D01*
X132552493Y-93958093D01*
X132581965Y-94030657D01*
X132611597Y-94099057D01*
X132613062Y-94102294D01*
X132663626Y-94213702D01*
X132495160Y-94460399D01*
X132443803Y-94536077D01*
X132397889Y-94604631D01*
X132360030Y-94662088D01*
X132332837Y-94704476D01*
X132318921Y-94727825D01*
X132317889Y-94730042D01*
X132322484Y-94747010D01*
X132344655Y-94778701D01*
X132385447Y-94826352D01*
X132445905Y-94891198D01*
X132510227Y-94957397D01*
X132573612Y-95021214D01*
X132631451Y-95078329D01*
X132680175Y-95125305D01*
X132716210Y-95158703D01*
X132735984Y-95175085D01*
X132737002Y-95175694D01*
X132750572Y-95177505D01*
X132772733Y-95170683D01*
X132806478Y-95153540D01*
X132854800Y-95124393D01*
X132920692Y-95081555D01*
X133005517Y-95024448D01*
X133080177Y-94973766D01*
X133147140Y-94928461D01*
X133202516Y-94891150D01*
X133242420Y-94864452D01*
X133262962Y-94850985D01*
X133264356Y-94850137D01*
X133284038Y-94851781D01*
X133322293Y-94864245D01*
X133371889Y-94885048D01*
X133387728Y-94892462D01*
X133458290Y-94924814D01*
X133538353Y-94959328D01*
X133607629Y-94987365D01*
X133659045Y-95007568D01*
X133698119Y-95023615D01*
X133718541Y-95032888D01*
X133720114Y-95034041D01*
X133722721Y-95051096D01*
X133729863Y-95091298D01*
X133740523Y-95149302D01*
X133753685Y-95219763D01*
X133768333Y-95297335D01*
X133783449Y-95376672D01*
X133798018Y-95452431D01*
X133811022Y-95519264D01*
X133821445Y-95571828D01*
X133828270Y-95604776D01*
X133830199Y-95612857D01*
X133834962Y-95621205D01*
X133845718Y-95627506D01*
X133866098Y-95632045D01*
X133899734Y-95635104D01*
X133950255Y-95636967D01*
X134021292Y-95637918D01*
X134116476Y-95638240D01*
X134155492Y-95638257D01*
X134472799Y-95638257D01*
X134487839Y-95562057D01*
X134495995Y-95519663D01*
X134507899Y-95456400D01*
X134522116Y-95379962D01*
X134537210Y-95298043D01*
X134541355Y-95275400D01*
X134556053Y-95199806D01*
X134570505Y-95133953D01*
X134583375Y-95083366D01*
X134593322Y-95053574D01*
X134596287Y-95048612D01*
X134617283Y-95036426D01*
X134657967Y-95018953D01*
X134710322Y-94999577D01*
X134721600Y-94995734D01*
X134791523Y-94970339D01*
X134870418Y-94938817D01*
X134941266Y-94907969D01*
X134941595Y-94907817D01*
X135052733Y-94856447D01*
X135301253Y-95025399D01*
X135549772Y-95194352D01*
X135767058Y-94977429D01*
X135831726Y-94911819D01*
X135888733Y-94851979D01*
X135935033Y-94801267D01*
X135967584Y-94763046D01*
X135983343Y-94740675D01*
X135984343Y-94737466D01*
X135976469Y-94718626D01*
X135954578Y-94680180D01*
X135921267Y-94626330D01*
X135879131Y-94561276D01*
X135831943Y-94490940D01*
X135783810Y-94419555D01*
X135741928Y-94355908D01*
X135708871Y-94304041D01*
X135687218Y-94267995D01*
X135679543Y-94251867D01*
X135686037Y-94232189D01*
X135703150Y-94194875D01*
X135727326Y-94147621D01*
X135730013Y-94142612D01*
X135761927Y-94078977D01*
X135777579Y-94035341D01*
X135777745Y-94008202D01*
X135763204Y-93994057D01*
X135763000Y-93993975D01*
X135745779Y-93986905D01*
X135704899Y-93970042D01*
X135643525Y-93944695D01*
X135564819Y-93912171D01*
X135471947Y-93873778D01*
X135368072Y-93830822D01*
X135267502Y-93789222D01*
X135156516Y-93743504D01*
X135053703Y-93701526D01*
X134962215Y-93664548D01*
X134885201Y-93633827D01*
X134825815Y-93610622D01*
X134787209Y-93596190D01*
X134772800Y-93591743D01*
X134756272Y-93602896D01*
X134729930Y-93632069D01*
X134700887Y-93670971D01*
X134609039Y-93781757D01*
X134503759Y-93868351D01*
X134387266Y-93929716D01*
X134261776Y-93964815D01*
X134129507Y-93972608D01*
X134068457Y-93966943D01*
X133941795Y-93936078D01*
X133829941Y-93882920D01*
X133734001Y-93810767D01*
X133655076Y-93722917D01*
X133594270Y-93622665D01*
X133552687Y-93513310D01*
X133531428Y-93398147D01*
X133531599Y-93280475D01*
X133554301Y-93163590D01*
X133600638Y-93050789D01*
X133671713Y-92945369D01*
X133711911Y-92901368D01*
X133815129Y-92816979D01*
X133927925Y-92758222D01*
X134047010Y-92724704D01*
X134169095Y-92716035D01*
X134290893Y-92731823D01*
X134409116Y-92771678D01*
X134520475Y-92835207D01*
X134621684Y-92922021D01*
X134700887Y-93019029D01*
X134731162Y-93059437D01*
X134757219Y-93087982D01*
X134772825Y-93098257D01*
X134789843Y-93092877D01*
X134830500Y-93077575D01*
X134891642Y-93053612D01*
X134970119Y-93022244D01*
X135062780Y-92984732D01*
X135166472Y-92942333D01*
X135267526Y-92900663D01*
X135378607Y-92854690D01*
X135481541Y-92812107D01*
X135573165Y-92774221D01*
X135650316Y-92742340D01*
X135709831Y-92717771D01*
X135748544Y-92701820D01*
X135763000Y-92695910D01*
X135777685Y-92681948D01*
X135777642Y-92654940D01*
X135762099Y-92611413D01*
X135730284Y-92547890D01*
X135730013Y-92547388D01*
X135705323Y-92499560D01*
X135687338Y-92460897D01*
X135679614Y-92439095D01*
X135679543Y-92438133D01*
X135687378Y-92421721D01*
X135709165Y-92385487D01*
X135742328Y-92333474D01*
X135784291Y-92269725D01*
X135831943Y-92199060D01*
X135880191Y-92127116D01*
X135922151Y-92062274D01*
X135955227Y-92008735D01*
X135976821Y-91970697D01*
X135984343Y-91952533D01*
X135974457Y-91935808D01*
X135946826Y-91902180D01*
X135904495Y-91855010D01*
X135850505Y-91797658D01*
X135787899Y-91733484D01*
X135766983Y-91712497D01*
X135549623Y-91495499D01*
X135307220Y-91660668D01*
X135232781Y-91710864D01*
X135165972Y-91754919D01*
X135110665Y-91790362D01*
X135070729Y-91814719D01*
X135050036Y-91825522D01*
X135048563Y-91825838D01*
X135029058Y-91820143D01*
X134989822Y-91804826D01*
X134937430Y-91782537D01*
X134902355Y-91766893D01*
X134835201Y-91737641D01*
X134767358Y-91710094D01*
X134710034Y-91688737D01*
X134692572Y-91682935D01*
X134645938Y-91666452D01*
X134609905Y-91650340D01*
X134596287Y-91641490D01*
X134587952Y-91621960D01*
X134576137Y-91579334D01*
X134562181Y-91519145D01*
X134547422Y-91446922D01*
X134541355Y-91414600D01*
X134526273Y-91332522D01*
X134511669Y-91253795D01*
X134498980Y-91186109D01*
X134489642Y-91137160D01*
X134487839Y-91127943D01*
X134472799Y-91051743D01*
X134155492Y-91051743D01*
X134051154Y-91051914D01*
X133972213Y-91052616D01*
X133915038Y-91054134D01*
X133875999Y-91056749D01*
X133851465Y-91060746D01*
X133837805Y-91066409D01*
X133831389Y-91074020D01*
X133830199Y-91077143D01*
X133825980Y-91095978D01*
X133817562Y-91137588D01*
X133805961Y-91196630D01*
X133792195Y-91267757D01*
X133777280Y-91345625D01*
X133762232Y-91424887D01*
X133748069Y-91500198D01*
X133735806Y-91566213D01*
X133726461Y-91617587D01*
X133721050Y-91648975D01*
X133720114Y-91655959D01*
X133707596Y-91662285D01*
X133674246Y-91676290D01*
X133626377Y-91695355D01*
X133607629Y-91702634D01*
X133535195Y-91731996D01*
X133455170Y-91766571D01*
X133387728Y-91797537D01*
X133336159Y-91820323D01*
X133293785Y-91835482D01*
X133267834Y-91840542D01*
X133264356Y-91839736D01*
X133247936Y-91829041D01*
X133211417Y-91804620D01*
X133158687Y-91769095D01*
X133093635Y-91725087D01*
X133020151Y-91675217D01*
X133005645Y-91665356D01*
X132919704Y-91607492D01*
X132854261Y-91564956D01*
X132806304Y-91536054D01*
X132772820Y-91519090D01*
X132750795Y-91512367D01*
X132737217Y-91514190D01*
X132737131Y-91514236D01*
X132719297Y-91528586D01*
X132684817Y-91560323D01*
X132637268Y-91606010D01*
X132580222Y-91662204D01*
X132517255Y-91725468D01*
X132510227Y-91732602D01*
X132433020Y-91812330D01*
X132376330Y-91873857D01*
X132339110Y-91918421D01*
X132320315Y-91947257D01*
X132317889Y-91959958D01*
X132328471Y-91978494D01*
X132352916Y-92016961D01*
X132388612Y-92071386D01*
X132432947Y-92137798D01*
X132483311Y-92212225D01*
X132495160Y-92229601D01*
X132663626Y-92476297D01*
X132613062Y-92587706D01*
X132583595Y-92655457D01*
X132553959Y-92728183D01*
X132530330Y-92790703D01*
X132529358Y-92793457D01*
X132511457Y-92842360D01*
X132496320Y-92880057D01*
X132487210Y-92898425D01*
X132487184Y-92898456D01*
X132470717Y-92904285D01*
X132430219Y-92914192D01*
X132370242Y-92927195D01*
X132295340Y-92942309D01*
X132210064Y-92958552D01*
X132202875Y-92959881D01*
X132115014Y-92976175D01*
X132035260Y-92991133D01*
X131968681Y-93003791D01*
X131920347Y-93013186D01*
X131895325Y-93018354D01*
X131894943Y-93018444D01*
X131884299Y-93021589D01*
X131876262Y-93027704D01*
X131870467Y-93040453D01*
X131866547Y-93063500D01*
X131864135Y-93100509D01*
X131862865Y-93155144D01*
X131862371Y-93231067D01*
X131862286Y-93331944D01*
X131862286Y-93345000D01*
X131862348Y-93448910D01*
X131862348Y-93448910D01*
G37*
X131862348Y-93448910D02*
X131862778Y-93527454D01*
X131863942Y-93584298D01*
X131866207Y-93623105D01*
X131869940Y-93647538D01*
X131875506Y-93661262D01*
X131883273Y-93667940D01*
X131893605Y-93671236D01*
X131894943Y-93671556D01*
X131919079Y-93676562D01*
X131966701Y-93685829D01*
X132032741Y-93698392D01*
X132112128Y-93713287D01*
X132199796Y-93729551D01*
X132202875Y-93730119D01*
X132288789Y-93746410D01*
X132364696Y-93761652D01*
X132426045Y-93774861D01*
X132468282Y-93785054D01*
X132486855Y-93791248D01*
X132487184Y-93791543D01*
X132496253Y-93809788D01*
X132511367Y-93847405D01*
X132529262Y-93896271D01*
X132529358Y-93896543D01*
X132552493Y-93958093D01*
X132581965Y-94030657D01*
X132611597Y-94099057D01*
X132613062Y-94102294D01*
X132663626Y-94213702D01*
X132495160Y-94460399D01*
X132443803Y-94536077D01*
X132397889Y-94604631D01*
X132360030Y-94662088D01*
X132332837Y-94704476D01*
X132318921Y-94727825D01*
X132317889Y-94730042D01*
X132322484Y-94747010D01*
X132344655Y-94778701D01*
X132385447Y-94826352D01*
X132445905Y-94891198D01*
X132510227Y-94957397D01*
X132573612Y-95021214D01*
X132631451Y-95078329D01*
X132680175Y-95125305D01*
X132716210Y-95158703D01*
X132735984Y-95175085D01*
X132737002Y-95175694D01*
X132750572Y-95177505D01*
X132772733Y-95170683D01*
X132806478Y-95153540D01*
X132854800Y-95124393D01*
X132920692Y-95081555D01*
X133005517Y-95024448D01*
X133080177Y-94973766D01*
X133147140Y-94928461D01*
X133202516Y-94891150D01*
X133242420Y-94864452D01*
X133262962Y-94850985D01*
X133264356Y-94850137D01*
X133284038Y-94851781D01*
X133322293Y-94864245D01*
X133371889Y-94885048D01*
X133387728Y-94892462D01*
X133458290Y-94924814D01*
X133538353Y-94959328D01*
X133607629Y-94987365D01*
X133659045Y-95007568D01*
X133698119Y-95023615D01*
X133718541Y-95032888D01*
X133720114Y-95034041D01*
X133722721Y-95051096D01*
X133729863Y-95091298D01*
X133740523Y-95149302D01*
X133753685Y-95219763D01*
X133768333Y-95297335D01*
X133783449Y-95376672D01*
X133798018Y-95452431D01*
X133811022Y-95519264D01*
X133821445Y-95571828D01*
X133828270Y-95604776D01*
X133830199Y-95612857D01*
X133834962Y-95621205D01*
X133845718Y-95627506D01*
X133866098Y-95632045D01*
X133899734Y-95635104D01*
X133950255Y-95636967D01*
X134021292Y-95637918D01*
X134116476Y-95638240D01*
X134155492Y-95638257D01*
X134472799Y-95638257D01*
X134487839Y-95562057D01*
X134495995Y-95519663D01*
X134507899Y-95456400D01*
X134522116Y-95379962D01*
X134537210Y-95298043D01*
X134541355Y-95275400D01*
X134556053Y-95199806D01*
X134570505Y-95133953D01*
X134583375Y-95083366D01*
X134593322Y-95053574D01*
X134596287Y-95048612D01*
X134617283Y-95036426D01*
X134657967Y-95018953D01*
X134710322Y-94999577D01*
X134721600Y-94995734D01*
X134791523Y-94970339D01*
X134870418Y-94938817D01*
X134941266Y-94907969D01*
X134941595Y-94907817D01*
X135052733Y-94856447D01*
X135301253Y-95025399D01*
X135549772Y-95194352D01*
X135767058Y-94977429D01*
X135831726Y-94911819D01*
X135888733Y-94851979D01*
X135935033Y-94801267D01*
X135967584Y-94763046D01*
X135983343Y-94740675D01*
X135984343Y-94737466D01*
X135976469Y-94718626D01*
X135954578Y-94680180D01*
X135921267Y-94626330D01*
X135879131Y-94561276D01*
X135831943Y-94490940D01*
X135783810Y-94419555D01*
X135741928Y-94355908D01*
X135708871Y-94304041D01*
X135687218Y-94267995D01*
X135679543Y-94251867D01*
X135686037Y-94232189D01*
X135703150Y-94194875D01*
X135727326Y-94147621D01*
X135730013Y-94142612D01*
X135761927Y-94078977D01*
X135777579Y-94035341D01*
X135777745Y-94008202D01*
X135763204Y-93994057D01*
X135763000Y-93993975D01*
X135745779Y-93986905D01*
X135704899Y-93970042D01*
X135643525Y-93944695D01*
X135564819Y-93912171D01*
X135471947Y-93873778D01*
X135368072Y-93830822D01*
X135267502Y-93789222D01*
X135156516Y-93743504D01*
X135053703Y-93701526D01*
X134962215Y-93664548D01*
X134885201Y-93633827D01*
X134825815Y-93610622D01*
X134787209Y-93596190D01*
X134772800Y-93591743D01*
X134756272Y-93602896D01*
X134729930Y-93632069D01*
X134700887Y-93670971D01*
X134609039Y-93781757D01*
X134503759Y-93868351D01*
X134387266Y-93929716D01*
X134261776Y-93964815D01*
X134129507Y-93972608D01*
X134068457Y-93966943D01*
X133941795Y-93936078D01*
X133829941Y-93882920D01*
X133734001Y-93810767D01*
X133655076Y-93722917D01*
X133594270Y-93622665D01*
X133552687Y-93513310D01*
X133531428Y-93398147D01*
X133531599Y-93280475D01*
X133554301Y-93163590D01*
X133600638Y-93050789D01*
X133671713Y-92945369D01*
X133711911Y-92901368D01*
X133815129Y-92816979D01*
X133927925Y-92758222D01*
X134047010Y-92724704D01*
X134169095Y-92716035D01*
X134290893Y-92731823D01*
X134409116Y-92771678D01*
X134520475Y-92835207D01*
X134621684Y-92922021D01*
X134700887Y-93019029D01*
X134731162Y-93059437D01*
X134757219Y-93087982D01*
X134772825Y-93098257D01*
X134789843Y-93092877D01*
X134830500Y-93077575D01*
X134891642Y-93053612D01*
X134970119Y-93022244D01*
X135062780Y-92984732D01*
X135166472Y-92942333D01*
X135267526Y-92900663D01*
X135378607Y-92854690D01*
X135481541Y-92812107D01*
X135573165Y-92774221D01*
X135650316Y-92742340D01*
X135709831Y-92717771D01*
X135748544Y-92701820D01*
X135763000Y-92695910D01*
X135777685Y-92681948D01*
X135777642Y-92654940D01*
X135762099Y-92611413D01*
X135730284Y-92547890D01*
X135730013Y-92547388D01*
X135705323Y-92499560D01*
X135687338Y-92460897D01*
X135679614Y-92439095D01*
X135679543Y-92438133D01*
X135687378Y-92421721D01*
X135709165Y-92385487D01*
X135742328Y-92333474D01*
X135784291Y-92269725D01*
X135831943Y-92199060D01*
X135880191Y-92127116D01*
X135922151Y-92062274D01*
X135955227Y-92008735D01*
X135976821Y-91970697D01*
X135984343Y-91952533D01*
X135974457Y-91935808D01*
X135946826Y-91902180D01*
X135904495Y-91855010D01*
X135850505Y-91797658D01*
X135787899Y-91733484D01*
X135766983Y-91712497D01*
X135549623Y-91495499D01*
X135307220Y-91660668D01*
X135232781Y-91710864D01*
X135165972Y-91754919D01*
X135110665Y-91790362D01*
X135070729Y-91814719D01*
X135050036Y-91825522D01*
X135048563Y-91825838D01*
X135029058Y-91820143D01*
X134989822Y-91804826D01*
X134937430Y-91782537D01*
X134902355Y-91766893D01*
X134835201Y-91737641D01*
X134767358Y-91710094D01*
X134710034Y-91688737D01*
X134692572Y-91682935D01*
X134645938Y-91666452D01*
X134609905Y-91650340D01*
X134596287Y-91641490D01*
X134587952Y-91621960D01*
X134576137Y-91579334D01*
X134562181Y-91519145D01*
X134547422Y-91446922D01*
X134541355Y-91414600D01*
X134526273Y-91332522D01*
X134511669Y-91253795D01*
X134498980Y-91186109D01*
X134489642Y-91137160D01*
X134487839Y-91127943D01*
X134472799Y-91051743D01*
X134155492Y-91051743D01*
X134051154Y-91051914D01*
X133972213Y-91052616D01*
X133915038Y-91054134D01*
X133875999Y-91056749D01*
X133851465Y-91060746D01*
X133837805Y-91066409D01*
X133831389Y-91074020D01*
X133830199Y-91077143D01*
X133825980Y-91095978D01*
X133817562Y-91137588D01*
X133805961Y-91196630D01*
X133792195Y-91267757D01*
X133777280Y-91345625D01*
X133762232Y-91424887D01*
X133748069Y-91500198D01*
X133735806Y-91566213D01*
X133726461Y-91617587D01*
X133721050Y-91648975D01*
X133720114Y-91655959D01*
X133707596Y-91662285D01*
X133674246Y-91676290D01*
X133626377Y-91695355D01*
X133607629Y-91702634D01*
X133535195Y-91731996D01*
X133455170Y-91766571D01*
X133387728Y-91797537D01*
X133336159Y-91820323D01*
X133293785Y-91835482D01*
X133267834Y-91840542D01*
X133264356Y-91839736D01*
X133247936Y-91829041D01*
X133211417Y-91804620D01*
X133158687Y-91769095D01*
X133093635Y-91725087D01*
X133020151Y-91675217D01*
X133005645Y-91665356D01*
X132919704Y-91607492D01*
X132854261Y-91564956D01*
X132806304Y-91536054D01*
X132772820Y-91519090D01*
X132750795Y-91512367D01*
X132737217Y-91514190D01*
X132737131Y-91514236D01*
X132719297Y-91528586D01*
X132684817Y-91560323D01*
X132637268Y-91606010D01*
X132580222Y-91662204D01*
X132517255Y-91725468D01*
X132510227Y-91732602D01*
X132433020Y-91812330D01*
X132376330Y-91873857D01*
X132339110Y-91918421D01*
X132320315Y-91947257D01*
X132317889Y-91959958D01*
X132328471Y-91978494D01*
X132352916Y-92016961D01*
X132388612Y-92071386D01*
X132432947Y-92137798D01*
X132483311Y-92212225D01*
X132495160Y-92229601D01*
X132663626Y-92476297D01*
X132613062Y-92587706D01*
X132583595Y-92655457D01*
X132553959Y-92728183D01*
X132530330Y-92790703D01*
X132529358Y-92793457D01*
X132511457Y-92842360D01*
X132496320Y-92880057D01*
X132487210Y-92898425D01*
X132487184Y-92898456D01*
X132470717Y-92904285D01*
X132430219Y-92914192D01*
X132370242Y-92927195D01*
X132295340Y-92942309D01*
X132210064Y-92958552D01*
X132202875Y-92959881D01*
X132115014Y-92976175D01*
X132035260Y-92991133D01*
X131968681Y-93003791D01*
X131920347Y-93013186D01*
X131895325Y-93018354D01*
X131894943Y-93018444D01*
X131884299Y-93021589D01*
X131876262Y-93027704D01*
X131870467Y-93040453D01*
X131866547Y-93063500D01*
X131864135Y-93100509D01*
X131862865Y-93155144D01*
X131862371Y-93231067D01*
X131862286Y-93331944D01*
X131862286Y-93345000D01*
X131862348Y-93448910D01*
D11*
X141030000Y-105350000D02*
X141030000Y-108010000D01*
X118110000Y-105350000D02*
X141030000Y-105350000D01*
X118110000Y-108010000D02*
X141030000Y-108010000D01*
X118110000Y-105350000D02*
X118110000Y-108010000D01*
X116840000Y-105350000D02*
X115510000Y-105350000D01*
X115510000Y-105350000D02*
X115510000Y-106680000D01*
D13*
X141861404Y-90699995D02*
X141061404Y-90699995D01*
X141861404Y-91080947D02*
X141061404Y-91080947D01*
X141861404Y-91538090D01*
X141061404Y-91538090D01*
X141137595Y-91880947D02*
X141099500Y-91919042D01*
X141061404Y-91995233D01*
X141061404Y-92185709D01*
X141099500Y-92261899D01*
X141137595Y-92299995D01*
X141213785Y-92338090D01*
X141289976Y-92338090D01*
X141404261Y-92299995D01*
X141861404Y-91842852D01*
X141861404Y-92338090D01*
X141861404Y-93719032D02*
X141061404Y-93719032D01*
X141861404Y-94099985D02*
X141061404Y-94099985D01*
X141061404Y-94404746D01*
X141099500Y-94480937D01*
X141137595Y-94519032D01*
X141213785Y-94557127D01*
X141328071Y-94557127D01*
X141404261Y-94519032D01*
X141442357Y-94480937D01*
X141480452Y-94404746D01*
X141480452Y-94099985D01*
X141137595Y-94861889D02*
X141099500Y-94899985D01*
X141061404Y-94976175D01*
X141061404Y-95166651D01*
X141099500Y-95242842D01*
X141137595Y-95280937D01*
X141213785Y-95319032D01*
X141289976Y-95319032D01*
X141404261Y-95280937D01*
X141861404Y-94823794D01*
X141861404Y-95319032D01*
X122916904Y-97866428D02*
X122116904Y-97866428D01*
X122688333Y-98133095D01*
X122116904Y-98399761D01*
X122916904Y-98399761D01*
X122116904Y-98933095D02*
X122116904Y-99085476D01*
X122155000Y-99161666D01*
X122231190Y-99237857D01*
X122383571Y-99275952D01*
X122650238Y-99275952D01*
X122802619Y-99237857D01*
X122878809Y-99161666D01*
X122916904Y-99085476D01*
X122916904Y-98933095D01*
X122878809Y-98856904D01*
X122802619Y-98780714D01*
X122650238Y-98742619D01*
X122383571Y-98742619D01*
X122231190Y-98780714D01*
X122155000Y-98856904D01*
X122116904Y-98933095D01*
X122916904Y-99618809D02*
X122116904Y-99618809D01*
X122116904Y-99809285D01*
X122155000Y-99923571D01*
X122231190Y-99999761D01*
X122307380Y-100037857D01*
X122459761Y-100075952D01*
X122574047Y-100075952D01*
X122726428Y-100037857D01*
X122802619Y-99999761D01*
X122878809Y-99923571D01*
X122916904Y-99809285D01*
X122916904Y-99618809D01*
X122497857Y-100418809D02*
X122497857Y-100685476D01*
X122916904Y-100799761D02*
X122916904Y-100418809D01*
X122116904Y-100418809D01*
X122116904Y-100799761D01*
X122916904Y-101561666D02*
X122916904Y-101104523D01*
X122916904Y-101333095D02*
X122116904Y-101333095D01*
X122231190Y-101256904D01*
X122307380Y-101180714D01*
X122345476Y-101104523D01*
X119665714Y-98253809D02*
X119703809Y-98215714D01*
X119741904Y-98101428D01*
X119741904Y-98025238D01*
X119703809Y-97910952D01*
X119627619Y-97834761D01*
X119551428Y-97796666D01*
X119399047Y-97758571D01*
X119284761Y-97758571D01*
X119132380Y-97796666D01*
X119056190Y-97834761D01*
X118980000Y-97910952D01*
X118941904Y-98025238D01*
X118941904Y-98101428D01*
X118980000Y-98215714D01*
X119018095Y-98253809D01*
X119741904Y-98596666D02*
X118941904Y-98596666D01*
X118941904Y-98901428D01*
X118980000Y-98977619D01*
X119018095Y-99015714D01*
X119094285Y-99053809D01*
X119208571Y-99053809D01*
X119284761Y-99015714D01*
X119322857Y-98977619D01*
X119360952Y-98901428D01*
X119360952Y-98596666D01*
X118941904Y-99396666D02*
X119589523Y-99396666D01*
X119665714Y-99434761D01*
X119703809Y-99472857D01*
X119741904Y-99549047D01*
X119741904Y-99701428D01*
X119703809Y-99777619D01*
X119665714Y-99815714D01*
X119589523Y-99853809D01*
X118941904Y-99853809D01*
X119665714Y-100691904D02*
X119703809Y-100653809D01*
X119741904Y-100539523D01*
X119741904Y-100463333D01*
X119703809Y-100349047D01*
X119627619Y-100272857D01*
X119551428Y-100234761D01*
X119399047Y-100196666D01*
X119284761Y-100196666D01*
X119132380Y-100234761D01*
X119056190Y-100272857D01*
X118980000Y-100349047D01*
X118941904Y-100463333D01*
X118941904Y-100539523D01*
X118980000Y-100653809D01*
X119018095Y-100691904D01*
X119741904Y-101415714D02*
X119741904Y-101034761D01*
X118941904Y-101034761D01*
X119741904Y-101682380D02*
X118941904Y-101682380D01*
X119741904Y-102139523D02*
X119284761Y-101796666D01*
X118941904Y-102139523D02*
X119399047Y-101682380D01*
X119741904Y-102901428D02*
X119741904Y-102444285D01*
X119741904Y-102672857D02*
X118941904Y-102672857D01*
X119056190Y-102596666D01*
X119132380Y-102520476D01*
X119170476Y-102444285D01*
X115369000Y-97836642D02*
X115369000Y-98405952D01*
X116147857Y-97872619D02*
X116147857Y-98139285D01*
X116566904Y-98253571D02*
X116566904Y-97872619D01*
X115766904Y-97872619D01*
X115766904Y-98253571D01*
X115369000Y-98405952D02*
X115369000Y-99167857D01*
X116566904Y-99015476D02*
X116566904Y-98558333D01*
X116566904Y-98786904D02*
X115766904Y-98786904D01*
X115881190Y-98710714D01*
X115957380Y-98634523D01*
X115995476Y-98558333D01*
X112194000Y-97836642D02*
X112194000Y-98405952D01*
X112972857Y-97872619D02*
X112972857Y-98139285D01*
X113391904Y-98253571D02*
X113391904Y-97872619D01*
X112591904Y-97872619D01*
X112591904Y-98253571D01*
X112194000Y-98405952D02*
X112194000Y-99167857D01*
X112668095Y-98558333D02*
X112630000Y-98596428D01*
X112591904Y-98672619D01*
X112591904Y-98863095D01*
X112630000Y-98939285D01*
X112668095Y-98977380D01*
X112744285Y-99015476D01*
X112820476Y-99015476D01*
X112934761Y-98977380D01*
X113391904Y-98520238D01*
X113391904Y-99015476D01*
X118544000Y-87676642D02*
X118544000Y-88245952D01*
X119322857Y-87712619D02*
X119322857Y-87979285D01*
X119741904Y-88093571D02*
X119741904Y-87712619D01*
X118941904Y-87712619D01*
X118941904Y-88093571D01*
X118544000Y-88245952D02*
X118544000Y-89007857D01*
X118941904Y-88360238D02*
X118941904Y-88855476D01*
X119246666Y-88588809D01*
X119246666Y-88703095D01*
X119284761Y-88779285D01*
X119322857Y-88817380D01*
X119399047Y-88855476D01*
X119589523Y-88855476D01*
X119665714Y-88817380D01*
X119703809Y-88779285D01*
X119741904Y-88703095D01*
X119741904Y-88474523D01*
X119703809Y-88398333D01*
X119665714Y-88360238D01*
X112194000Y-86489261D02*
X112194000Y-86715714D01*
X113391904Y-86525238D02*
X112591904Y-86525238D01*
X112194000Y-86715714D02*
X112194000Y-87553809D01*
X113391904Y-86906190D02*
X112591904Y-86906190D01*
X113391904Y-87363333D01*
X112591904Y-87363333D01*
X112194000Y-87553809D02*
X112194000Y-88163333D01*
X112591904Y-87630000D02*
X112591904Y-88087142D01*
X113391904Y-87858571D02*
X112591904Y-87858571D01*
X112194000Y-88163333D02*
X112194000Y-88925238D01*
X113391904Y-88772857D02*
X113391904Y-88315714D01*
X113391904Y-88544285D02*
X112591904Y-88544285D01*
X112706190Y-88468095D01*
X112782380Y-88391904D01*
X112820476Y-88315714D01*
X115369000Y-84959023D02*
X115369000Y-85604523D01*
X116566904Y-85452142D02*
X116185952Y-85185476D01*
X116566904Y-84995000D02*
X115766904Y-84995000D01*
X115766904Y-85299761D01*
X115805000Y-85375952D01*
X115843095Y-85414047D01*
X115919285Y-85452142D01*
X116033571Y-85452142D01*
X116109761Y-85414047D01*
X116147857Y-85375952D01*
X116185952Y-85299761D01*
X116185952Y-84995000D01*
X115369000Y-85604523D02*
X115369000Y-86328333D01*
X116147857Y-85795000D02*
X116147857Y-86061666D01*
X116566904Y-86175952D02*
X116566904Y-85795000D01*
X115766904Y-85795000D01*
X115766904Y-86175952D01*
X115369000Y-86328333D02*
X115369000Y-87090238D01*
X116528809Y-86480714D02*
X116566904Y-86595000D01*
X116566904Y-86785476D01*
X116528809Y-86861666D01*
X116490714Y-86899761D01*
X116414523Y-86937857D01*
X116338333Y-86937857D01*
X116262142Y-86899761D01*
X116224047Y-86861666D01*
X116185952Y-86785476D01*
X116147857Y-86633095D01*
X116109761Y-86556904D01*
X116071666Y-86518809D01*
X115995476Y-86480714D01*
X115919285Y-86480714D01*
X115843095Y-86518809D01*
X115805000Y-86556904D01*
X115766904Y-86633095D01*
X115766904Y-86823571D01*
X115805000Y-86937857D01*
X115369000Y-87090238D02*
X115369000Y-87814047D01*
X116147857Y-87280714D02*
X116147857Y-87547380D01*
X116566904Y-87661666D02*
X116566904Y-87280714D01*
X115766904Y-87280714D01*
X115766904Y-87661666D01*
X115369000Y-87814047D02*
X115369000Y-88423571D01*
X115766904Y-87890238D02*
X115766904Y-88347380D01*
X116566904Y-88118809D02*
X115766904Y-88118809D01*
X115369000Y-88423571D02*
X115369000Y-89185476D01*
X116566904Y-89033095D02*
X116566904Y-88575952D01*
X116566904Y-88804523D02*
X115766904Y-88804523D01*
X115881190Y-88728333D01*
X115957380Y-88652142D01*
X115995476Y-88575952D01*
X122916904Y-84766428D02*
X122116904Y-84766428D01*
X122116904Y-85071190D01*
X122155000Y-85147380D01*
X122193095Y-85185476D01*
X122269285Y-85223571D01*
X122383571Y-85223571D01*
X122459761Y-85185476D01*
X122497857Y-85147380D01*
X122535952Y-85071190D01*
X122535952Y-84766428D01*
X122497857Y-85833095D02*
X122497857Y-85566428D01*
X122916904Y-85566428D02*
X122116904Y-85566428D01*
X122116904Y-85947380D01*
X122916904Y-86252142D02*
X122116904Y-86252142D01*
X122688333Y-86518809D01*
X122116904Y-86785476D01*
X122916904Y-86785476D01*
X122116904Y-87318809D02*
X122116904Y-87471190D01*
X122155000Y-87547380D01*
X122231190Y-87623571D01*
X122383571Y-87661666D01*
X122650238Y-87661666D01*
X122802619Y-87623571D01*
X122878809Y-87547380D01*
X122916904Y-87471190D01*
X122916904Y-87318809D01*
X122878809Y-87242619D01*
X122802619Y-87166428D01*
X122650238Y-87128333D01*
X122383571Y-87128333D01*
X122231190Y-87166428D01*
X122155000Y-87242619D01*
X122116904Y-87318809D01*
X122916904Y-88004523D02*
X122116904Y-88004523D01*
X122916904Y-88461666D01*
X122116904Y-88461666D01*
X122916904Y-89261666D02*
X122916904Y-88804523D01*
X122916904Y-89033095D02*
X122116904Y-89033095D01*
X122231190Y-88956904D01*
X122307380Y-88880714D01*
X122345476Y-88804523D01*
X131578333Y-101430714D02*
X131616428Y-101468809D01*
X131730714Y-101506904D01*
X131806904Y-101506904D01*
X131921190Y-101468809D01*
X131997380Y-101392619D01*
X132035476Y-101316428D01*
X132073571Y-101164047D01*
X132073571Y-101049761D01*
X132035476Y-100897380D01*
X131997380Y-100821190D01*
X131921190Y-100745000D01*
X131806904Y-100706904D01*
X131730714Y-100706904D01*
X131616428Y-100745000D01*
X131578333Y-100783095D01*
X131311666Y-100706904D02*
X130778333Y-100706904D01*
X131121190Y-101506904D01*
X130308333Y-85375714D02*
X130346428Y-85413809D01*
X130460714Y-85451904D01*
X130536904Y-85451904D01*
X130651190Y-85413809D01*
X130727380Y-85337619D01*
X130765476Y-85261428D01*
X130803571Y-85109047D01*
X130803571Y-84994761D01*
X130765476Y-84842380D01*
X130727380Y-84766190D01*
X130651190Y-84690000D01*
X130536904Y-84651904D01*
X130460714Y-84651904D01*
X130346428Y-84690000D01*
X130308333Y-84728095D01*
X129851190Y-84994761D02*
X129927380Y-84956666D01*
X129965476Y-84918571D01*
X130003571Y-84842380D01*
X130003571Y-84804285D01*
X129965476Y-84728095D01*
X129927380Y-84690000D01*
X129851190Y-84651904D01*
X129698809Y-84651904D01*
X129622619Y-84690000D01*
X129584523Y-84728095D01*
X129546428Y-84804285D01*
X129546428Y-84842380D01*
X129584523Y-84918571D01*
X129622619Y-84956666D01*
X129698809Y-84994761D01*
X129851190Y-84994761D01*
X129927380Y-85032857D01*
X129965476Y-85070952D01*
X130003571Y-85147142D01*
X130003571Y-85299523D01*
X129965476Y-85375714D01*
X129927380Y-85413809D01*
X129851190Y-85451904D01*
X129698809Y-85451904D01*
X129622619Y-85413809D01*
X129584523Y-85375714D01*
X129546428Y-85299523D01*
X129546428Y-85147142D01*
X129584523Y-85070952D01*
X129622619Y-85032857D01*
X129698809Y-84994761D01*
X139285714Y-95866666D02*
X139323809Y-95828571D01*
X139361904Y-95714285D01*
X139361904Y-95638095D01*
X139323809Y-95523809D01*
X139247619Y-95447619D01*
X139171428Y-95409523D01*
X139019047Y-95371428D01*
X138904761Y-95371428D01*
X138752380Y-95409523D01*
X138676190Y-95447619D01*
X138600000Y-95523809D01*
X138561904Y-95638095D01*
X138561904Y-95714285D01*
X138600000Y-95828571D01*
X138638095Y-95866666D01*
X139361904Y-96247619D02*
X139361904Y-96400000D01*
X139323809Y-96476190D01*
X139285714Y-96514285D01*
X139171428Y-96590476D01*
X139019047Y-96628571D01*
X138714285Y-96628571D01*
X138638095Y-96590476D01*
X138600000Y-96552380D01*
X138561904Y-96476190D01*
X138561904Y-96323809D01*
X138600000Y-96247619D01*
X138638095Y-96209523D01*
X138714285Y-96171428D01*
X138904761Y-96171428D01*
X138980952Y-96209523D01*
X139019047Y-96247619D01*
X139057142Y-96323809D01*
X139057142Y-96476190D01*
X139019047Y-96552380D01*
X138980952Y-96590476D01*
X138904761Y-96628571D01*
M02*
