M48
INCH,TZ
T1C0.0157
T2C0.0394
%
G90
G05
T1
X44094Y-33465
X44094Y-34646
X44094Y-39370
X44094Y-40551
X45276Y-31890
X46317Y-35148
X46636Y-36716
X46850Y-31890
X48140Y-37461
X48288Y-34922
X48425Y-31890
X49283Y-36400
X50034Y-35922
X50276Y-33670
X50302Y-33165
X50683Y-34742
X50717Y-39773
X50929Y-35932
X50951Y-37577
X51116Y-39657
X51372Y-38760
X51459Y-37580
X51723Y-34460
X52211Y-39767
X53768Y-33538
X53937Y-31890
X54060Y-37081
X54554Y-35912
X55512Y-31890
X56685Y-35209
X56692Y-38094
X57087Y-33465
X57087Y-34646
X57087Y-39370
X57087Y-40551
T2
X46000Y-42000
X47000Y-42000
X48000Y-42000
X49000Y-42000
X50000Y-42000
X51000Y-42000
X52000Y-42000
X53000Y-42000
X54000Y-42000
X55000Y-42000
T0
M30
